{"glyphs":{"0":{"ha":894,"x_min":75,"x_max":826,"o":"m 182 850 q 285 931 221 900 q 433 963 350 963 q 712 819 597 963 q 826 479 826 675 q 772 235 826 351 q 611 44 717 119 q 369 -31 506 -31 q 153 92 232 -31 q 75 464 75 215 q 182 850 75 713 m 376 40 q 562 109 479 40 q 687 280 644 178 q 729 480 729 382 q 684 670 729 578 q 560 825 639 763 q 394 888 481 888 q 287 846 333 888 q 217 739 240 804 q 169 476 169 613 q 182 316 169 399 q 214 180 194 233 q 276 83 233 126 q 376 40 318 40 z "},"1":{"ha":469,"x_min":24,"x_max":365,"o":"m 240 942 q 365 639 365 942 q 335 44 365 500 q 310 19 333 31 q 276 7 286 7 q 240 21 244 7 q 239 125 239 53 q 249 389 239 197 q 258 675 258 581 q 213 868 258 868 q 114 810 181 868 q 61 792 96 792 q 24 810 26 792 q 105 894 24 846 q 240 942 186 942 z "},"2":{"ha":789,"x_min":24,"x_max":764,"o":"m 631 110 q 741 90 718 93 q 764 68 764 86 q 760 51 764 61 q 713 17 740 21 q 538 46 706 17 q 301 75 369 75 q 189 67 233 75 q 164 44 182 61 q 133 17 146 26 q 61 -10 99 -10 q 24 17 24 -10 q 59 91 24 61 q 149 136 94 121 q 360 354 306 290 q 524 743 524 551 q 371 869 524 869 q 189 822 281 869 q 147 824 169 814 q 125 856 125 833 q 222 915 125 888 q 403 943 319 943 q 553 891 488 943 q 618 738 618 839 q 281 151 618 458 q 631 110 414 151 z "},"3":{"ha":728,"x_min":56,"x_max":654,"o":"m 92 815 q 210 882 92 843 q 416 921 329 921 q 563 879 503 921 q 624 753 624 838 q 438 492 624 613 q 591 423 528 476 q 654 292 654 369 q 547 83 654 172 q 313 -6 439 -6 q 179 26 247 -6 q 61 110 111 57 q 56 122 56 115 q 81 150 56 136 q 121 164 106 164 q 146 156 136 164 q 338 69 221 69 q 483 122 417 69 q 550 267 550 174 q 498 384 550 338 q 374 431 446 431 q 282 406 328 431 q 242 407 264 397 q 221 436 221 417 q 242 465 221 456 q 531 743 531 606 q 488 813 531 790 q 376 836 444 836 q 168 788 260 836 q 149 782 160 782 q 122 786 138 782 q 92 815 92 796 z "},"4":{"ha":756,"x_min":35,"x_max":713,"o":"m 458 565 l 469 878 q 493 901 469 892 q 541 911 517 911 q 565 900 565 911 q 559 746 565 874 q 553 548 553 618 q 560 428 553 478 q 585 430 561 428 q 626 433 608 432 q 667 432 644 433 q 713 406 713 429 q 675 367 713 372 q 606 360 639 360 q 564 361 572 361 q 574 124 574 150 q 574 80 574 97 q 574 57 575 63 q 570 38 574 51 q 560 19 567 25 q 509 6 539 6 q 479 17 479 6 q 468 360 479 168 q 419 363 461 363 l 207 358 q 35 394 35 358 q 36 401 35 397 q 127 717 103 599 q 179 878 151 836 q 242 918 207 917 q 278 908 268 918 q 282 886 288 899 q 194 626 238 793 q 142 429 151 460 l 465 426 q 458 565 458 513 z "},"5":{"ha":803,"x_min":51,"x_max":747,"o":"m 632 832 l 317 838 q 240 836 271 838 q 254 695 254 775 q 219 515 254 615 q 392 526 317 525 q 519 517 467 528 q 626 484 572 507 q 713 417 679 461 q 747 313 747 372 q 635 97 747 190 q 339 3 522 3 q 149 49 228 3 q 51 186 71 94 q 76 214 53 201 q 108 226 99 226 q 146 211 140 226 q 229 106 161 143 q 385 69 297 69 q 588 143 514 69 q 663 315 663 217 q 331 450 663 450 q 308 450 319 450 l 153 443 q 119 453 132 443 q 113 483 106 463 q 135 615 121 504 q 150 789 150 725 q 147 853 150 789 q 166 898 147 890 q 260 906 185 906 l 347 906 q 628 900 467 906 q 676 883 665 900 q 673 849 688 865 q 632 832 658 832 z "},"6":{"ha":807,"x_min":71,"x_max":771,"o":"m 317 758 q 280 719 317 758 q 206 571 243 681 q 168 363 168 461 q 193 199 168 265 q 394 384 269 293 q 617 475 519 475 q 723 425 675 475 q 771 299 771 375 q 701 148 771 222 q 536 32 632 74 q 353 -10 440 -10 q 199 44 265 -10 q 71 338 71 146 q 126 601 71 469 q 285 821 182 732 q 508 910 388 910 q 554 878 554 910 q 521 842 554 854 q 481 835 501 835 q 317 758 390 835 m 368 69 q 486 101 414 69 q 620 188 558 132 q 682 301 682 244 q 660 363 682 340 q 606 385 639 385 q 409 290 525 385 q 240 125 293 196 q 368 69 299 69 z "},"7":{"ha":675,"x_min":40,"x_max":633,"o":"m 40 836 q 63 874 40 861 q 123 886 86 886 q 267 899 160 886 q 442 913 375 913 q 572 877 510 913 q 633 767 633 842 q 576 603 633 717 l 304 36 q 240 10 292 10 q 208 31 208 10 q 213 47 208 39 q 446 521 307 260 q 461 550 447 525 q 481 585 475 575 l 497 618 q 539 757 539 703 q 389 838 539 838 q 244 826 340 838 q 94 815 147 815 q 40 836 40 815 z "},"8":{"ha":833,"x_min":78,"x_max":772,"o":"m 467 951 q 583 933 515 951 q 712 874 651 915 q 772 785 772 833 q 742 689 772 738 q 656 592 713 640 q 429 429 565 514 q 468 406 438 424 q 513 380 499 389 q 558 352 528 371 q 606 321 589 333 q 648 290 624 308 q 687 255 672 271 q 717 221 701 239 q 743 151 743 188 q 642 48 743 90 q 394 6 540 6 q 88 161 88 6 q 138 281 88 222 q 290 410 189 339 q 78 652 78 532 q 201 862 78 772 q 467 951 324 951 m 603 213 q 394 351 531 276 q 349 378 357 372 q 235 276 281 333 q 190 172 190 219 q 251 97 190 125 q 406 69 313 69 q 573 89 500 69 q 646 142 646 108 q 603 213 646 175 m 174 669 q 239 539 176 588 q 367 461 288 503 q 599 632 546 583 q 679 768 679 707 q 589 847 679 815 q 436 879 499 879 q 249 825 325 879 q 174 669 174 771 z "},"9":{"ha":700,"x_min":43,"x_max":590,"o":"m 475 21 q 493 342 493 131 q 492 427 493 369 q 492 517 492 485 q 211 385 360 385 q 88 432 133 385 q 43 575 43 479 q 126 810 43 704 q 315 915 208 915 q 501 860 422 915 q 582 704 579 804 q 590 465 590 558 q 571 26 590 178 q 513 0 568 0 q 475 21 479 0 m 493 694 q 431 797 493 740 q 307 854 368 854 l 301 854 q 190 755 243 854 q 136 584 136 656 q 169 480 136 513 q 247 447 201 447 q 410 534 328 447 q 493 694 493 621 z "}," ":{"ha":314,"x_min":0,"x_max":0,"o":""},"!":{"ha":324,"x_min":72,"x_max":242,"o":"m 125 943 q 144 970 126 960 q 185 981 163 981 q 222 953 222 981 q 201 338 219 543 q 180 312 200 322 q 140 301 160 301 q 106 329 106 301 q 125 943 125 533 m 136 96 q 173 99 151 99 q 218 82 194 99 q 242 36 242 65 q 212 -17 242 7 q 156 -42 182 -42 q 101 -23 131 -42 q 72 17 72 -4 q 136 96 72 83 z "},"\"":{"ha":450,"x_min":74,"x_max":371,"o":"m 82 819 q 74 928 82 875 q 92 963 74 949 q 136 976 111 976 q 181 817 181 976 q 181 788 181 808 q 181 760 182 768 q 179 735 181 751 q 174 712 178 719 q 164 694 171 704 q 116 679 151 679 q 81 708 81 679 l 82 819 m 274 938 q 293 967 274 958 q 328 976 313 976 l 347 974 q 371 944 371 967 l 371 717 q 351 686 371 696 q 315 676 331 676 l 297 679 q 274 710 274 686 l 274 938 z "},"#":{"ha":826,"x_min":51,"x_max":768,"o":"m 599 471 l 574 311 q 629 310 578 310 q 768 283 768 310 q 689 243 768 243 q 607 249 646 243 q 564 256 568 256 q 508 31 542 136 q 440 1 500 1 q 418 13 418 1 q 444 120 418 35 q 478 253 471 206 q 278 229 389 246 q 225 21 244 121 q 202 -3 222 6 q 167 -12 182 -12 q 135 8 135 -12 q 160 125 135 46 q 189 219 185 204 l 169 217 q 69 217 86 208 q 51 237 51 225 q 61 257 51 249 q 90 269 71 265 q 125 274 108 272 q 168 275 142 275 q 206 276 194 275 q 253 433 242 389 q 147 417 190 418 q 89 422 103 415 q 75 442 75 428 q 107 460 75 453 q 193 474 139 467 q 267 486 247 482 q 285 567 272 513 q 301 643 297 621 q 324 674 304 665 q 360 683 343 683 q 392 661 392 683 q 376 568 392 621 q 358 506 361 515 q 521 522 439 518 q 546 678 531 599 q 567 699 547 690 q 604 708 586 708 q 635 689 633 707 q 607 524 624 635 q 761 501 761 519 q 669 467 761 463 q 625 469 650 467 q 599 471 600 471 m 294 286 q 488 307 426 303 q 513 471 496 363 q 344 453 436 469 q 294 286 322 369 z "},"$":{"ha":749,"x_min":39,"x_max":701,"o":"m 350 929 l 351 1081 q 369 1098 351 1090 q 403 1106 388 1106 q 422 1100 419 1106 l 422 940 q 631 844 539 940 q 618 819 638 831 q 576 805 599 807 q 542 810 553 803 q 422 881 490 864 q 418 508 419 633 q 468 482 425 504 q 526 451 511 460 q 576 420 540 443 q 628 381 613 397 q 664 339 643 364 q 701 229 701 294 q 674 163 701 193 q 615 115 647 132 q 533 85 582 99 q 411 58 478 69 q 407 -243 408 -142 q 389 -261 407 -254 q 354 -268 371 -268 q 335 -261 338 -268 q 340 54 338 -50 q 44 135 151 54 q 39 140 39 138 q 68 161 39 149 q 112 174 97 174 q 133 169 126 174 q 340 97 218 108 l 346 460 q 187 564 243 513 q 131 697 131 615 q 194 840 131 778 q 350 929 258 903 m 224 717 q 347 551 224 633 q 350 882 347 663 q 264 822 304 872 q 224 717 224 772 m 413 97 q 517 119 469 100 q 607 219 607 156 q 583 290 607 254 q 525 353 560 326 q 417 424 461 403 q 413 97 414 207 z "},"%":{"ha":1021,"x_min":49,"x_max":975,"o":"m 49 713 q 49 752 49 713 q 127 838 49 790 q 274 885 206 885 q 386 853 343 885 q 429 760 429 822 q 358 634 429 697 q 211 571 286 571 q 92 603 136 571 q 49 713 49 636 m 136 726 q 136 705 136 726 q 159 656 136 683 q 226 629 182 629 q 306 665 269 629 q 342 744 342 700 q 319 815 342 788 q 244 842 297 842 q 164 806 192 842 q 136 726 136 769 m 758 888 q 808 910 769 910 q 849 888 846 910 q 553 411 722 660 q 228 -62 403 189 q 179 -85 213 -85 q 140 -64 146 -85 q 435 381 224 72 q 758 888 647 689 m 804 300 q 922 265 868 300 q 975 168 975 229 q 906 51 975 107 q 756 -4 838 -4 q 667 33 701 -4 q 632 119 632 71 q 804 300 632 300 m 719 136 q 742 74 719 100 q 797 47 765 47 q 858 80 828 47 q 888 156 888 113 q 863 225 888 199 q 801 251 838 251 q 744 229 764 251 q 722 187 725 207 q 719 155 719 167 q 719 136 719 143 z "},"&":{"ha":469,"x_min":65,"x_max":435,"o":"m 158 362 q 158 343 158 362 q 193 301 158 325 q 267 278 228 278 q 340 297 306 278 q 405 317 375 317 q 435 299 435 317 q 379 248 435 272 q 276 218 324 224 q 288 42 278 186 q 265 19 286 28 q 233 10 243 10 q 200 18 203 10 q 188 225 188 171 q 99 273 133 239 q 65 349 65 307 q 146 475 65 419 q 99 549 99 499 q 172 664 99 624 q 160 755 160 707 q 181 857 160 803 q 206 869 183 864 q 246 875 228 875 q 267 874 264 875 q 247 775 247 821 q 260 690 247 729 q 335 667 335 690 q 318 640 335 653 q 283 626 301 626 q 251 625 264 626 q 222 618 239 624 q 190 565 190 607 q 208 531 190 543 q 246 517 225 519 q 301 497 301 511 q 278 465 301 475 q 244 454 256 454 q 226 456 233 454 q 177 425 196 451 q 158 362 158 399 z "},"'":{"ha":258,"x_min":78,"x_max":188,"o":"m 99 903 q 142 936 101 928 q 158 938 151 938 q 188 914 185 938 q 167 635 167 775 q 148 608 167 617 q 114 599 129 599 l 100 600 q 78 626 78 606 q 99 903 78 765 z "},"(":{"ha":381,"x_min":54,"x_max":381,"o":"m 299 1065 q 142 538 142 813 q 375 -71 142 200 q 381 -82 381 -76 q 358 -106 381 -94 q 319 -117 335 -117 q 293 -106 301 -117 q 54 521 54 172 q 217 1067 54 806 q 266 1086 229 1086 q 303 1075 303 1086 q 299 1065 303 1071 z "},")":{"ha":331,"x_min":28,"x_max":274,"o":"m 35 1075 l 33 1076 q 63 1097 33 1089 q 106 1106 93 1106 q 122 1099 118 1106 q 274 503 274 815 q 115 -87 274 192 q 89 -103 111 -96 q 49 -110 67 -110 q 28 -104 32 -110 q 185 487 185 178 q 35 1075 185 796 z "},"*":{"ha":614,"x_min":78,"x_max":542,"o":"m 285 981 q 286 990 285 981 q 299 1009 288 999 q 329 1019 310 1019 q 349 965 349 1019 q 344 907 349 944 q 340 865 340 869 q 362 883 344 868 q 391 908 379 899 q 422 931 403 917 q 457 953 442 944 q 517 975 493 975 q 542 965 542 975 q 516 935 542 954 q 433 878 490 917 q 360 822 375 840 q 417 778 368 815 q 526 679 526 693 q 500 647 526 647 q 431 674 481 647 q 351 740 382 700 q 347 749 349 744 l 360 619 q 347 603 360 610 q 319 597 333 596 q 304 604 304 597 q 289 757 293 711 q 250 717 279 747 q 203 669 221 686 q 161 635 186 651 q 122 619 136 619 q 98 631 107 619 q 99 656 89 643 q 193 738 132 688 q 275 807 254 789 q 94 921 175 885 q 78 935 78 926 q 93 956 78 944 q 122 968 108 968 q 150 963 135 968 q 185 946 165 957 q 218 926 204 935 q 254 901 232 917 q 285 881 276 886 q 283 909 285 888 q 281 947 281 931 q 285 981 282 963 z "},"+":{"ha":631,"x_min":43,"x_max":585,"o":"m 165 376 l 238 374 q 235 621 235 540 q 258 649 235 638 q 306 660 282 660 q 331 647 331 660 q 332 514 331 603 q 333 382 333 425 q 546 410 368 386 q 585 384 585 410 q 553 343 585 358 l 538 339 q 333 313 401 319 q 325 81 331 158 q 302 58 324 67 q 255 49 281 49 q 229 67 229 50 l 238 304 q 231 304 236 304 l 131 300 q 43 324 43 300 q 100 372 43 364 q 165 376 133 376 z "},",":{"ha":254,"x_min":-49,"x_max":178,"o":"m 89 -31 q 85 6 89 -18 q 78 50 81 31 q 78 89 76 69 q 133 132 81 132 q 178 0 178 132 q 26 -343 178 -228 q -6 -354 10 -354 q -35 -347 -21 -354 q -49 -330 -49 -340 q -32 -306 -49 -319 q 89 -31 89 -212 z "},"-":{"ha":757,"x_min":89,"x_max":668,"o":"m 179 414 l 446 404 q 577 412 538 404 q 625 419 617 419 q 668 397 668 419 q 620 350 668 367 q 509 331 572 333 q 410 329 446 329 q 327 330 374 329 q 210 335 281 331 q 128 340 139 340 q 89 356 89 340 q 140 403 89 379 q 179 414 164 414 z "},".":{"ha":314,"x_min":69,"x_max":239,"o":"m 153 -42 q 141 -42 153 -42 q 99 -23 128 -42 q 69 22 69 -4 q 100 73 69 49 q 163 97 131 97 q 217 79 194 97 q 239 34 239 61 q 209 -17 239 7 q 153 -42 179 -42 z "},"/":{"ha":682,"x_min":32,"x_max":647,"o":"m 551 1049 q 625 1075 564 1075 q 647 1063 650 1075 q 404 472 554 871 q 131 -157 254 74 q 57 -182 115 -182 q 32 -175 32 -182 q 35 -171 32 -174 q 308 458 158 60 q 551 1049 458 857 z "},":":{"ha":340,"x_min":88,"x_max":251,"o":"m 88 108 q 88 119 88 108 q 118 154 88 131 q 175 178 149 178 q 221 165 201 178 q 240 127 240 153 q 206 80 240 101 q 146 58 171 58 q 104 72 121 58 q 88 108 88 85 m 168 579 q 226 563 200 579 q 251 518 251 547 q 226 466 251 489 q 172 443 201 443 q 124 466 142 443 q 107 517 107 489 q 168 579 107 572 z "},";":{"ha":339,"x_min":40,"x_max":246,"o":"m 185 606 q 228 589 211 606 q 246 556 246 572 q 208 508 246 526 q 129 490 171 490 q 88 531 88 490 q 185 606 88 606 m 67 -153 q 40 -119 40 -153 q 63 -93 40 -97 q 107 -69 90 -86 q 129 -35 124 -53 q 138 -6 135 -17 q 143 30 142 6 q 144 64 144 54 l 144 129 q 163 151 144 143 q 196 160 181 160 q 231 136 231 156 q 197 -72 231 -18 q 83 -150 158 -135 q 67 -153 75 -153 z "},"<":{"ha":657,"x_min":42,"x_max":613,"o":"m 543 719 q 528 690 543 706 q 419 611 514 675 q 158 411 158 431 q 203 358 158 392 l 221 346 q 278 297 238 332 q 338 246 319 261 q 393 203 357 231 q 456 161 429 176 q 592 101 528 121 q 613 85 613 94 q 593 58 613 75 q 547 42 574 42 q 531 44 536 42 q 386 110 458 67 q 275 185 314 153 q 154 293 236 217 q 57 383 72 369 q 42 404 42 397 q 67 435 42 411 q 183 523 92 460 q 294 603 274 586 q 340 645 314 621 q 381 681 367 669 q 419 711 396 693 q 504 743 465 743 q 543 719 543 743 z "},"=":{"ha":836,"x_min":108,"x_max":733,"o":"m 175 471 q 160 469 168 469 l 131 476 q 108 511 108 488 q 202 563 108 549 q 440 578 296 576 q 624 586 583 581 q 672 556 672 586 q 632 506 672 525 q 426 488 599 489 q 175 471 253 488 m 206 332 l 699 326 q 733 307 733 326 q 693 260 733 282 q 658 249 674 249 l 403 244 q 132 276 132 244 q 156 313 132 294 q 206 332 181 332 z "},">":{"ha":657,"x_min":42,"x_max":613,"o":"m 111 53 q 126 82 111 67 q 233 167 140 97 q 496 383 496 364 q 451 436 496 403 l 433 449 q 248 590 325 540 q 63 671 171 639 q 42 688 42 678 q 61 714 42 697 q 107 731 81 731 q 186 707 129 731 q 283 659 243 683 q 349 619 324 635 q 418 567 375 603 q 478 517 461 532 q 608 401 539 464 q 613 390 613 397 q 586 358 613 383 q 464 253 560 332 q 354 163 368 175 q 314 127 340 151 q 273 91 288 103 q 233 61 258 79 q 150 29 189 29 q 111 53 111 29 z "},"?":{"ha":611,"x_min":47,"x_max":565,"o":"m 119 861 q 95 853 108 853 q 65 864 82 853 q 47 888 47 875 q 65 913 47 901 q 313 967 157 967 q 546 906 503 967 q 565 831 565 879 q 524 712 565 783 q 432 581 482 640 q 338 453 382 522 q 292 336 294 383 q 270 306 290 317 q 233 294 250 294 l 222 294 q 197 324 199 300 q 244 461 201 388 q 335 590 288 535 q 423 711 383 644 q 463 824 463 778 q 425 886 463 869 q 288 903 388 903 q 119 861 189 903 m 279 147 q 321 130 303 144 q 339 88 339 115 q 306 39 339 61 q 236 17 272 17 q 182 56 182 17 q 210 122 182 96 q 279 147 238 147 z "},"@":{"ha":728,"x_min":61,"x_max":683,"o":"m 136 474 q 242 610 174 557 q 397 663 311 663 q 551 588 483 663 q 651 416 618 514 q 683 242 683 318 q 651 118 683 165 q 549 71 618 71 q 454 153 479 71 q 306 42 403 42 q 229 145 229 42 q 286 326 229 249 q 421 403 343 403 q 482 377 451 403 q 513 294 513 351 q 531 185 513 236 q 572 135 549 135 q 598 154 588 135 q 608 206 608 174 q 538 474 608 338 q 386 610 467 610 q 260 540 317 610 q 173 368 203 471 q 143 163 143 265 q 167 -14 143 61 q 249 -139 190 -89 q 396 -189 308 -189 q 518 -168 450 -189 q 539 -165 531 -165 q 557 -179 557 -165 q 492 -217 557 -203 q 375 -231 426 -231 q 146 -139 231 -231 q 61 130 61 -47 q 136 474 61 307 m 324 108 q 376 156 351 108 q 422 263 401 204 q 449 332 442 322 q 410 344 431 344 q 338 283 368 344 q 308 165 308 221 q 324 108 308 108 z "},"A":{"ha":964,"x_min":53,"x_max":918,"o":"m 918 7 q 854 -24 896 -24 q 832 -21 843 -24 q 787 176 801 49 q 765 343 772 303 q 463 349 614 349 q 192 336 311 349 q 165 166 179 279 q 143 14 150 53 q 53 3 93 -26 q 65 108 57 36 q 80 231 74 181 q 99 360 86 282 q 123 494 111 438 q 156 620 135 550 q 199 740 176 690 q 253 842 221 790 q 324 925 286 893 q 511 996 410 996 q 680 918 613 996 q 782 714 747 840 q 838 460 817 588 q 878 199 858 332 q 918 7 897 65 m 660 778 q 647 812 660 778 q 592 884 633 846 q 489 922 550 922 q 371 863 428 922 q 281 714 314 803 q 206 408 221 549 q 485 424 344 424 q 756 415 625 424 q 735 514 750 436 q 703 651 719 592 q 660 778 688 710 z "},"B":{"ha":967,"x_min":111,"x_max":907,"o":"m 122 86 l 111 899 q 471 988 111 988 q 755 924 640 988 q 869 740 869 860 q 808 590 869 661 q 671 500 747 519 q 837 415 767 471 q 907 271 907 360 q 831 114 907 182 q 378 -15 683 -15 q 122 86 122 -15 m 213 496 q 403 529 299 529 q 500 529 451 529 q 678 595 574 529 q 783 721 783 661 q 672 862 783 810 q 426 914 561 914 q 208 883 292 914 q 208 810 208 858 q 210 652 208 763 q 213 496 213 542 m 806 271 q 544 447 806 392 q 292 408 411 408 q 215 413 253 408 q 219 76 219 247 q 383 58 300 58 q 530 69 465 58 q 659 101 594 79 q 765 168 724 124 q 806 271 806 213 z "},"C":{"ha":1025,"x_min":67,"x_max":1003,"o":"m 896 785 q 860 757 875 765 q 830 756 844 749 q 810 767 815 763 q 788 794 804 771 q 768 822 772 817 q 585 910 697 910 q 376 838 474 910 q 218 650 278 767 q 158 407 158 533 q 262 153 158 251 q 537 54 365 54 q 838 150 708 54 q 883 194 858 165 q 924 236 907 224 q 958 247 942 249 q 1003 238 974 246 q 803 56 943 121 q 488 -8 664 -8 q 189 90 311 -8 q 67 376 67 189 q 106 602 67 493 q 213 795 144 711 q 385 929 282 879 q 610 979 489 979 q 896 785 825 979 z "},"D":{"ha":1051,"x_min":107,"x_max":986,"o":"m 367 -8 l 251 -12 q 125 14 154 -12 q 107 53 107 28 q 118 465 107 210 q 129 861 129 719 q 235 953 129 918 q 461 988 340 988 q 837 860 688 988 q 986 528 986 732 q 951 338 986 425 q 856 187 915 250 q 717 79 796 124 q 367 -8 558 -8 m 888 494 q 766 795 888 674 q 451 917 644 917 q 226 854 357 917 q 215 517 226 742 q 204 208 204 293 q 206 86 204 122 q 372 71 283 71 q 742 181 597 71 q 888 494 888 290 z "},"E":{"ha":875,"x_min":114,"x_max":836,"o":"m 463 997 l 676 993 q 824 968 783 993 q 794 917 819 929 q 722 904 769 904 l 422 908 q 231 901 308 908 q 215 678 215 824 l 217 615 q 215 529 217 575 q 382 518 279 518 l 547 519 q 656 510 642 519 q 669 489 669 500 q 535 436 669 436 l 219 446 q 217 332 218 413 q 204 78 214 164 q 332 72 293 72 q 413 74 371 72 q 568 82 454 75 q 738 89 682 89 q 815 81 794 89 q 836 47 836 74 q 827 24 836 31 q 811 15 818 18 q 794 9 804 11 q 776 6 783 7 q 755 3 768 4 q 734 2 742 3 q 714 1 726 1 l 694 1 q 346 -11 422 -11 q 117 53 117 -11 q 114 299 114 182 q 139 939 114 683 q 308 992 168 985 q 463 997 396 997 z "},"F":{"ha":836,"x_min":106,"x_max":825,"o":"m 615 997 l 678 996 q 736 992 715 996 l 774 986 q 825 965 803 982 q 733 907 814 907 l 365 918 q 222 913 306 918 q 225 503 225 761 q 489 517 383 517 q 693 476 693 517 q 629 425 693 425 q 581 429 607 425 q 397 442 475 442 q 224 431 319 442 q 217 285 221 385 q 210 153 213 186 q 207 106 208 119 q 203 72 206 92 q 198 40 201 53 q 189 14 194 28 q 158 -19 181 -8 q 146 -22 151 -22 q 106 -11 128 -22 q 106 76 106 4 q 118 384 106 149 q 131 740 131 619 q 125 936 131 861 q 193 983 125 969 q 337 999 268 999 q 442 1000 406 1000 l 615 997 z "},"G":{"ha":1057,"x_min":67,"x_max":1008,"o":"m 582 424 q 504 450 504 424 q 600 498 504 481 q 794 515 696 515 q 938 510 893 515 q 995 494 982 504 q 1008 467 1008 485 q 889 99 1008 217 q 545 -19 769 -19 q 194 90 321 -19 q 67 393 67 200 q 226 826 67 660 q 624 992 386 992 q 821 949 728 992 q 935 838 914 906 q 897 821 915 821 q 853 829 879 821 q 801 861 828 838 q 721 909 775 885 q 607 933 667 933 q 287 776 422 933 q 151 404 151 618 q 276 139 151 235 q 567 43 400 43 q 836 161 757 43 q 911 438 911 269 q 882 447 900 447 q 839 446 864 447 q 692 433 775 443 q 582 424 608 424 z "},"H":{"ha":1001,"x_min":107,"x_max":886,"o":"m 782 950 q 846 983 803 983 q 876 975 863 983 q 886 676 886 824 q 880 303 886 529 q 872 10 874 76 q 818 -12 839 -12 q 786 -8 797 -12 q 778 142 778 65 l 786 458 q 519 469 667 469 q 213 440 372 469 q 201 35 201 165 q 145 7 167 7 q 111 14 124 7 q 107 206 107 82 q 124 615 107 329 q 143 944 142 900 q 206 974 161 974 q 232 968 219 974 q 236 869 236 929 q 228 687 236 810 q 219 517 219 564 q 531 544 388 544 q 783 535 674 544 q 788 686 788 586 q 782 950 788 786 z "},"I":{"ha":339,"x_min":115,"x_max":226,"o":"m 226 978 q 211 -3 213 350 q 174 -25 190 -25 q 147 -18 158 -25 q 115 60 115 3 q 125 842 118 728 q 146 974 132 956 q 179 992 160 992 q 226 978 199 992 z "},"J":{"ha":663,"x_min":13,"x_max":563,"o":"m 532 972 q 547 650 532 868 q 563 322 563 432 q 504 78 563 160 q 293 -4 446 -4 q 122 35 201 -4 q 13 139 43 74 q 73 168 47 168 q 120 151 99 168 q 159 113 142 133 q 220 74 176 92 q 335 57 264 57 q 437 119 407 57 q 467 300 467 182 q 453 593 467 418 q 439 851 439 768 q 453 956 439 933 q 490 978 467 978 q 532 972 513 978 z "},"K":{"ha":894,"x_min":119,"x_max":894,"o":"m 219 981 l 224 654 q 219 519 224 585 q 437 635 342 568 q 583 763 532 703 q 673 877 635 824 q 740 963 711 931 q 793 994 768 994 q 842 976 818 994 q 681 730 785 833 q 419 519 578 626 q 559 413 493 482 q 668 278 625 344 q 894 14 789 93 q 826 -22 871 -22 q 717 49 781 -22 q 599 208 653 121 q 475 378 544 296 q 347 478 406 461 q 291 452 336 474 q 219 422 246 431 q 213 28 219 188 q 122 3 188 3 q 119 193 119 44 l 125 953 q 188 983 142 983 q 219 981 203 983 z "},"L":{"ha":743,"x_min":118,"x_max":733,"o":"m 221 946 l 214 331 q 222 60 214 188 q 374 54 306 54 l 665 60 q 733 21 733 60 q 442 -25 733 -25 q 260 -18 371 -25 q 125 4 149 -11 q 118 485 118 151 l 125 974 q 183 1001 161 1001 q 221 946 221 1001 z "},"M":{"ha":1196,"x_min":106,"x_max":1081,"o":"m 129 553 q 106 964 129 778 q 146 993 106 993 q 253 916 186 993 q 381 747 319 839 q 503 578 442 656 q 592 501 565 501 q 677 583 618 501 q 794 760 736 664 q 919 938 851 857 q 1027 1019 986 1019 q 1068 997 1068 1019 q 1081 692 1081 826 q 1079 473 1081 557 q 1077 351 1078 389 q 1072 177 1076 313 q 1068 18 1068 42 q 1011 -11 1047 -11 q 982 -3 996 -11 q 974 400 974 168 q 978 881 974 632 q 899 777 950 858 q 801 616 849 696 q 694 472 754 536 q 583 407 635 407 q 466 482 532 407 q 320 685 400 557 q 215 846 240 814 q 222 603 222 729 q 221 428 222 478 q 213 24 219 206 q 143 -6 190 -6 q 119 -1 131 -6 q 129 553 119 -1 z "},"N":{"ha":1085,"x_min":117,"x_max":969,"o":"m 861 108 l 874 969 q 921 992 896 992 q 960 983 946 992 q 969 679 969 799 l 958 36 q 958 -17 958 8 q 881 -47 911 -47 l 864 -44 q 842 -34 850 -37 q 822 -15 835 -31 q 806 8 810 1 q 787 39 801 15 q 767 72 772 63 q 688 198 761 81 q 596 344 615 315 q 513 468 576 374 q 414 608 450 563 q 217 828 307 744 q 224 439 224 646 q 215 -3 224 232 q 122 -28 199 -28 q 117 939 122 757 q 168 964 143 964 q 217 950 193 964 q 297 883 253 928 q 576 549 444 736 q 861 108 707 361 z "},"O":{"ha":1132,"x_min":68,"x_max":1065,"o":"m 906 840 q 1022 695 978 785 q 1065 486 1065 606 q 1017 263 1065 367 q 890 97 968 158 q 537 -28 731 -28 q 206 98 343 -28 q 68 442 68 224 q 109 667 68 567 q 219 828 150 767 q 561 956 364 956 q 906 840 756 956 m 160 439 q 262 153 160 260 q 533 46 364 46 q 848 166 729 46 q 967 470 967 286 q 847 764 967 654 q 557 874 728 874 q 273 762 386 874 q 160 439 160 650 z "},"P":{"ha":932,"x_min":104,"x_max":896,"o":"m 122 447 q 104 829 122 664 q 140 904 104 872 q 236 953 176 936 q 499 983 356 983 q 790 902 683 983 q 896 653 896 821 q 760 383 896 485 q 428 282 624 282 q 218 324 328 282 q 211 143 211 257 l 213 75 q 211 6 213 42 q 196 -8 204 -4 q 184 -15 188 -12 q 174 -18 181 -17 q 164 -19 167 -19 q 144 -22 156 -22 l 121 -22 q 118 165 118 82 l 122 447 m 215 424 q 458 356 317 356 q 697 444 600 357 q 794 657 794 531 q 694 846 794 783 q 455 908 594 908 q 208 844 315 908 q 215 424 215 754 z "},"Q":{"ha":1086,"x_min":68,"x_max":1014,"o":"m 1014 546 q 846 117 1014 264 q 899 61 876 83 q 942 34 908 49 q 988 6 975 19 q 1000 -31 1000 -8 q 960 -37 983 -37 q 893 -19 936 -37 q 824 29 850 -1 l 783 72 q 506 3 668 3 q 186 128 304 3 q 68 439 68 254 q 116 696 68 572 q 262 903 164 819 q 485 988 360 988 q 844 879 688 988 q 967 740 921 826 q 1014 546 1014 653 m 744 228 l 792 175 q 911 500 911 290 q 797 810 911 710 q 490 910 682 910 q 326 840 403 910 q 208 667 250 769 q 167 476 167 565 q 185 322 167 388 q 243 201 204 257 q 353 112 282 144 q 531 79 424 79 q 728 128 639 79 q 588 271 607 249 q 558 322 568 293 q 592 333 574 333 q 744 228 651 333 z "},"R":{"ha":963,"x_min":107,"x_max":981,"o":"m 208 267 l 213 57 q 193 -1 213 14 q 157 -17 174 -17 q 125 -12 140 -17 q 107 278 107 136 q 116 599 107 419 q 126 882 125 778 q 424 993 126 993 q 719 928 581 993 q 838 834 792 894 q 883 699 883 774 q 850 565 883 625 q 765 466 817 506 q 647 397 714 426 q 403 331 538 347 q 619 150 469 293 q 732 73 664 107 q 872 39 800 39 q 901 42 879 39 q 939 47 924 46 q 967 41 954 49 q 981 14 981 33 q 863 -33 981 -33 q 589 72 725 -33 q 472 164 529 117 q 210 313 332 282 q 208 267 208 300 m 779 682 q 674 858 779 799 q 408 917 569 917 q 219 894 307 917 q 213 651 219 785 q 206 467 206 517 q 207 393 206 417 q 525 442 413 408 q 706 528 646 476 q 779 682 779 592 z "},"S":{"ha":871,"x_min":56,"x_max":811,"o":"m 194 935 q 221 952 194 935 q 310 986 247 969 q 433 1003 372 1003 q 548 995 494 1003 q 658 969 601 988 q 750 914 714 951 q 790 825 786 876 q 774 794 792 804 q 735 783 757 783 q 703 794 714 783 q 683 825 693 804 q 453 932 631 932 q 255 881 332 932 q 178 731 178 829 q 213 635 178 675 q 303 574 247 596 q 427 533 360 551 q 562 493 494 515 q 685 440 629 471 q 776 355 742 410 q 811 224 811 300 q 702 35 811 113 q 428 -43 593 -43 q 178 11 300 -43 q 56 122 56 65 q 74 151 56 138 q 109 164 92 164 q 142 153 126 164 q 176 125 157 143 q 211 97 196 107 q 447 31 317 31 q 626 87 539 31 q 714 238 714 143 q 667 344 714 301 q 549 405 619 386 q 395 447 478 424 q 242 496 313 471 q 124 576 171 521 q 76 709 76 632 q 109 844 76 786 q 194 935 142 901 z "},"T":{"ha":896,"x_min":-18,"x_max":919,"o":"m -18 926 q 460 993 -18 993 q 742 984 569 993 q 919 958 914 975 q 804 896 917 896 q 697 903 772 896 q 569 910 622 910 q 515 886 515 910 q 501 -4 515 588 q 415 -25 472 -25 q 414 121 414 36 l 421 721 q 418 903 421 829 q 342 906 389 906 q 197 898 296 906 q 58 890 99 890 q -18 926 -18 890 z "},"U":{"ha":953,"x_min":96,"x_max":883,"o":"m 138 961 q 215 978 182 990 q 228 947 232 972 q 186 569 186 672 q 198 390 186 465 q 238 231 210 314 q 328 98 267 149 q 476 47 389 47 q 691 197 599 47 q 783 556 783 346 q 685 968 783 767 q 737 993 714 993 q 772 989 760 993 q 883 574 883 829 q 775 172 883 364 q 636 24 722 82 q 456 -33 550 -33 q 298 6 363 -33 q 197 106 233 46 q 136 247 160 167 q 96 551 96 386 q 138 961 96 796 z "},"V":{"ha":933,"x_min":17,"x_max":935,"o":"m 17 954 q 75 988 29 988 q 100 982 89 988 q 208 689 147 878 q 333 336 269 500 q 474 60 396 172 q 638 408 550 82 q 711 676 674 543 q 796 901 749 810 q 893 993 843 993 q 935 982 913 993 q 858 828 899 947 q 779 567 818 708 q 697 288 740 426 q 592 58 653 150 q 464 -33 532 -33 q 247 286 369 -33 q 149 549 182 453 q 72 784 115 646 q 17 954 28 922 z "},"W":{"ha":1454,"x_min":93,"x_max":1369,"o":"m 258 988 q 241 863 254 951 q 221 717 228 774 q 200 435 200 546 q 208 262 200 324 q 232 145 215 200 q 281 58 249 90 q 358 26 314 26 q 472 96 422 26 q 549 274 521 165 q 597 494 576 383 q 635 711 617 606 q 671 856 654 817 q 728 881 708 881 q 757 876 747 881 q 774 634 765 810 q 799 361 783 458 q 841 196 815 264 q 918 83 867 128 q 1037 38 969 38 q 1147 100 1104 38 q 1210 267 1190 163 q 1244 651 1244 453 q 1211 960 1244 849 q 1275 985 1246 985 q 1325 939 1304 985 q 1354 822 1346 893 q 1369 590 1369 694 q 1350 381 1369 486 q 1290 184 1331 275 q 1176 40 1249 93 q 1007 -14 1103 -14 q 892 17 943 -12 q 811 88 842 47 q 756 196 781 129 q 694 440 719 292 q 596 158 636 236 q 325 -31 497 -29 q 158 50 214 -31 q 97 253 110 122 q 93 379 93 308 q 168 971 93 611 q 226 992 204 992 q 258 988 247 992 z "},"X":{"ha":893,"x_min":0,"x_max":904,"o":"m 800 990 q 515 506 676 747 q 730 226 600 382 q 904 14 860 69 q 882 -12 903 -1 q 839 -22 861 -22 q 723 58 793 -22 q 565 267 653 138 q 460 419 478 396 q 397 330 436 392 q 320 210 358 268 q 236 93 282 151 q 135 -1 190 35 q 24 -36 79 -36 q 0 -35 8 -36 q 147 138 93 74 q 406 489 299 319 q 236 690 335 581 q 91 858 138 800 q 44 937 44 915 q 66 968 44 958 q 110 978 88 978 q 197 912 144 978 q 325 738 250 846 q 457 572 400 631 q 538 719 493 631 q 610 861 583 808 q 678 955 638 914 q 761 996 718 996 q 800 990 772 996 z "},"Y":{"ha":829,"x_min":26,"x_max":833,"o":"m 467 444 q 510 558 481 481 q 557 677 540 636 q 601 779 574 718 q 646 867 628 840 q 689 925 664 894 q 797 978 732 978 q 833 971 810 978 q 703 776 781 940 q 560 436 625 613 q 424 116 496 260 q 308 -28 353 -28 q 269 -19 290 -28 q 344 162 296 38 q 426 354 392 286 q 130 717 233 561 q 26 954 26 872 q 43 978 26 968 q 81 989 60 989 q 117 965 101 989 q 153 892 132 942 q 206 781 175 843 q 306 628 238 719 q 467 444 374 536 z "},"Z":{"ha":894,"x_min":35,"x_max":869,"o":"m 157 967 l 761 982 q 815 973 796 982 q 835 951 835 964 q 829 933 835 943 q 376 331 668 693 q 160 54 238 157 q 301 50 217 50 l 718 60 q 869 54 810 60 q 744 -17 861 -17 l 219 -32 q 35 14 35 -32 q 46 42 35 26 q 374 467 147 194 q 710 904 601 739 q 113 889 331 889 q 53 922 53 889 q 157 967 53 967 z "},"[":{"ha":506,"x_min":79,"x_max":478,"o":"m 256 -39 q 442 -7 322 -39 q 461 -35 464 -7 q 422 -72 458 -68 q 111 -90 285 -90 q 79 -71 79 -90 q 102 406 79 74 q 150 906 125 739 q 176 939 151 925 q 447 975 229 969 q 478 958 478 975 q 442 921 478 936 q 408 915 425 915 q 224 900 283 915 q 190 465 225 858 q 156 28 156 71 q 256 -39 156 -39 z "},"\\":{"ha":668,"x_min":39,"x_max":633,"o":"m 39 1067 q 54 1086 38 1076 q 90 1096 74 1096 q 115 1088 107 1096 q 388 431 186 871 q 633 -115 590 -8 q 614 -133 633 -125 q 578 -143 594 -143 q 557 -136 561 -143 q 312 410 514 -29 q 39 1067 110 850 z "},"]":{"ha":493,"x_min":22,"x_max":404,"o":"m 100 22 l 279 28 q 325 25 311 28 q 293 938 322 114 q 183 927 260 938 q 88 917 107 917 q 64 917 68 917 q 22 944 22 917 q 53 983 22 971 q 85 988 63 988 q 181 998 108 988 q 281 1008 253 1008 l 325 1008 q 335 1007 332 1008 q 345 1004 339 1006 q 355 1001 351 1003 q 361 994 358 999 q 369 976 369 988 q 404 -12 404 439 q 385 -34 404 -26 q 342 -40 367 -42 q 247 -39 317 -39 l 74 -42 q 49 -22 47 -42 q 78 17 50 1 q 100 22 89 22 z "},"^":{"ha":617,"x_min":63,"x_max":554,"o":"m 140 608 q 96 589 129 589 q 63 606 63 589 q 67 615 63 610 q 117 758 94 667 q 168 926 139 850 q 251 1051 197 1003 q 290 1068 269 1068 q 322 1053 311 1068 q 439 819 358 971 q 554 583 554 597 q 529 560 554 568 q 500 556 515 556 q 474 572 482 556 q 367 787 439 649 q 271 978 296 925 q 201 790 233 921 q 140 608 168 660 z "},"_":{"ha":1007,"x_min":136,"x_max":869,"o":"m 188 -110 q 403 -124 292 -124 q 649 -117 514 -124 q 847 -110 785 -111 q 869 -121 869 -110 q 858 -141 869 -125 q 828 -158 846 -157 q 729 -164 811 -160 q 317 -174 499 -174 q 136 -144 136 -174 q 153 -120 136 -131 q 188 -110 169 -110 z "},"`":{"ha":494,"x_min":104,"x_max":433,"o":"m 415 821 q 433 801 433 814 q 419 771 433 792 q 381 750 404 750 q 368 753 372 750 q 114 906 254 793 q 104 922 104 914 q 111 946 104 931 q 158 971 124 971 q 176 967 168 971 q 415 821 315 857 z "},"a":{"ha":624,"x_min":56,"x_max":660,"o":"m 521 400 l 514 240 q 542 78 514 119 q 588 50 558 50 q 611 54 596 50 q 660 46 640 63 q 563 -3 650 -3 q 483 47 503 -3 q 461 141 468 85 q 450 218 454 197 q 275 8 360 46 q 175 -11 232 -11 q 87 44 118 -11 q 56 204 56 99 q 90 426 56 310 q 192 622 125 542 q 338 701 258 701 q 489 607 451 701 q 521 400 521 526 m 181 445 q 171 407 181 445 q 151 302 161 369 q 142 183 142 235 q 163 93 142 131 q 219 56 185 56 q 364 197 294 56 q 433 461 433 339 q 392 592 433 540 q 319 625 364 625 q 237 573 274 625 q 181 445 200 521 z "},"b":{"ha":628,"x_min":82,"x_max":574,"o":"m 99 999 q 160 1029 115 1029 q 179 1026 169 1029 q 182 615 182 953 q 195 628 183 617 q 210 642 207 639 q 224 655 213 644 q 241 669 235 665 q 258 680 247 672 q 278 691 269 688 q 297 699 286 694 q 346 706 318 706 q 511 620 449 706 q 574 429 574 535 q 542 228 574 324 q 443 63 510 133 q 288 -8 376 -8 q 141 57 200 -8 q 82 206 82 122 q 92 517 82 290 q 101 844 101 744 q 99 999 101 943 m 297 60 q 394 111 351 60 q 482 399 482 213 q 443 576 482 499 q 333 653 404 653 q 263 613 293 653 q 215 508 232 574 q 183 233 183 385 q 236 76 183 106 q 297 60 260 63 z "},"c":{"ha":619,"x_min":56,"x_max":589,"o":"m 549 521 q 496 494 522 494 q 453 517 469 494 q 428 567 438 540 q 392 617 418 594 q 328 640 367 640 q 229 563 274 635 q 164 406 185 492 q 143 244 143 319 q 185 113 143 168 q 300 58 228 58 q 433 117 383 58 q 472 167 454 142 q 553 225 517 225 q 589 218 565 225 q 495 83 589 167 q 292 -1 401 -1 q 119 69 182 -1 q 56 250 56 139 q 125 536 56 393 q 219 651 160 606 q 353 696 279 696 q 472 647 426 696 q 549 521 517 597 z "},"d":{"ha":657,"x_min":60,"x_max":604,"o":"m 604 1113 q 551 431 551 635 q 589 25 551 228 q 540 -3 561 -3 q 506 3 519 -3 q 471 226 476 106 q 422 151 438 174 q 367 86 406 129 q 199 3 296 3 q 92 72 125 3 q 60 248 60 140 q 84 453 60 356 q 168 623 108 551 q 315 694 228 694 q 413 672 368 694 q 474 613 457 650 q 479 728 476 650 q 485 866 482 806 q 497 989 489 926 q 565 1122 513 1122 q 604 1113 583 1122 m 442 563 q 434 578 442 563 q 396 608 425 593 q 319 622 367 622 q 229 568 271 622 q 147 258 147 461 q 168 128 147 193 q 229 64 189 64 q 343 140 288 64 q 429 316 399 217 q 460 494 460 415 q 442 563 460 532 z "},"e":{"ha":657,"x_min":54,"x_max":625,"o":"m 153 282 q 150 244 150 254 q 201 115 150 161 q 321 69 251 69 q 434 89 390 69 q 497 131 478 108 q 589 193 547 193 q 625 185 604 193 q 520 60 611 117 q 292 4 429 4 q 124 66 194 4 q 54 235 54 128 q 97 442 54 342 q 219 615 139 543 q 381 686 299 686 q 515 652 464 686 q 565 553 565 618 q 458 353 565 432 q 229 275 350 275 q 153 282 197 275 m 258 328 q 375 369 324 328 q 448 457 426 411 q 469 540 469 503 q 440 606 469 578 q 372 635 411 635 q 244 539 303 635 q 160 340 185 443 q 258 328 221 328 z "},"f":{"ha":436,"x_min":3,"x_max":518,"o":"m 186 -10 q 161 411 161 -10 q 160 626 161 589 l 132 626 q 101 627 113 626 q 73 628 90 628 q 45 632 56 629 q 24 639 35 635 q 3 668 3 647 q 89 694 3 694 q 157 692 126 694 q 159 763 158 719 q 161 831 160 807 q 165 890 163 856 q 172 944 167 925 q 185 988 176 964 q 207 1025 193 1013 q 239 1050 221 1038 q 345 1074 271 1074 q 455 1037 419 1074 q 518 913 490 1000 q 469 888 497 888 q 450 890 460 888 q 405 981 425 957 q 350 1004 385 1004 q 298 992 315 1004 q 271 960 281 979 q 250 758 250 918 q 250 733 250 751 q 250 700 250 715 l 368 711 q 438 679 438 711 q 404 651 438 658 q 320 643 371 644 q 250 635 269 642 q 247 533 247 596 q 254 333 247 469 q 261 124 261 196 q 247 21 261 51 q 186 -10 232 -10 z "},"g":{"ha":647,"x_min":15,"x_max":574,"o":"m 325 694 q 500 592 451 694 q 543 489 526 538 q 565 356 560 440 q 574 62 574 226 q 495 -201 574 -103 q 266 -299 417 -299 q 15 -201 115 -299 q 76 -174 43 -174 q 166 -202 108 -174 q 289 -231 224 -231 q 397 -201 354 -231 q 461 -117 440 -171 q 496 119 496 -21 q 492 274 496 140 q 385 85 454 160 q 228 11 315 11 q 99 90 140 11 q 58 268 58 168 q 86 463 58 368 q 176 626 114 558 q 325 694 239 694 m 178 483 q 169 453 178 483 q 151 368 160 422 q 143 259 143 314 q 166 138 143 204 q 233 71 189 71 q 389 202 321 71 q 457 467 457 333 q 415 570 457 513 q 308 628 372 628 q 230 586 264 628 q 178 483 196 544 z "},"h":{"ha":678,"x_min":90,"x_max":726,"o":"m 90 288 l 103 910 q 94 1008 103 982 q 171 1031 119 1031 q 192 649 192 882 q 179 326 192 579 q 413 678 244 678 q 505 615 472 678 q 546 461 538 551 q 560 281 554 371 q 638 64 574 64 q 664 72 639 64 q 726 81 719 89 q 683 42 726 65 q 604 19 640 19 q 510 83 543 19 q 470 236 478 146 q 459 416 463 326 q 440 569 456 506 q 389 632 425 632 q 308 535 344 632 q 250 322 271 439 q 199 109 229 206 q 139 13 169 13 q 90 288 90 13 z "},"i":{"ha":278,"x_min":89,"x_max":189,"o":"m 181 1022 q 179 951 179 990 q 183 871 179 913 q 131 849 164 849 q 89 915 89 849 q 89 936 89 918 q 90 969 89 954 q 94 1003 90 983 q 138 1036 104 1036 q 181 1022 171 1036 m 92 342 q 119 656 92 614 q 143 671 129 671 q 189 656 157 671 q 182 399 182 538 q 185 92 182 399 q 166 31 185 49 q 131 14 147 14 q 99 22 115 14 q 92 342 92 203 z "},"j":{"ha":279,"x_min":-128,"x_max":196,"o":"m 171 890 q 114 851 168 851 q 69 972 69 854 q 69 1000 69 986 q 117 1036 71 1036 q 156 1031 143 1036 q 171 890 171 972 m -28 -274 q 100 165 100 -274 q 92 429 100 271 q 85 613 85 588 q 140 671 85 671 q 172 635 172 671 l 171 596 q 178 475 171 558 q 196 119 196 219 q 187 -53 196 19 q 156 -197 178 -126 q 86 -306 133 -267 q -28 -346 39 -346 q -97 -335 -67 -346 q -128 -308 -128 -325 q -115 -280 -128 -289 q -90 -270 -103 -271 q -54 -272 -76 -269 q -28 -274 -32 -274 z "},"k":{"ha":656,"x_min":86,"x_max":657,"o":"m 194 1031 q 196 885 196 933 q 195 790 196 838 q 190 608 194 743 q 185 393 186 472 q 311 505 238 429 q 444 635 385 581 q 579 686 539 719 q 589 663 594 674 q 526 592 575 633 q 410 497 476 550 q 304 400 343 444 q 467 286 406 386 q 518 194 493 240 q 657 31 582 74 q 593 3 629 3 q 522 38 557 3 q 460 122 486 72 q 408 222 435 172 q 269 343 349 343 q 206 319 232 343 q 179 268 179 294 q 174 21 179 101 q 132 -6 154 -6 q 117 -3 125 -6 q 87 49 86 10 q 94 285 88 88 q 110 929 110 789 q 123 1017 110 994 q 155 1039 136 1039 q 194 1031 174 1039 z "},"l":{"ha":331,"x_min":90,"x_max":354,"o":"m 128 831 q 90 1015 128 968 q 153 1042 108 1042 q 171 1040 161 1042 q 206 839 206 1006 q 197 629 206 749 q 181 324 181 421 q 282 61 181 61 q 333 71 282 61 q 354 60 346 71 q 273 10 350 10 q 154 56 196 10 q 102 173 113 103 q 92 289 92 243 q 93 390 92 335 q 106 547 94 444 q 128 831 128 756 z "},"m":{"ha":928,"x_min":88,"x_max":983,"o":"m 147 607 q 163 424 163 607 q 162 331 163 394 q 161 264 161 267 q 190 478 175 421 q 219 576 204 535 q 253 639 235 617 q 356 696 297 696 q 466 622 429 696 q 504 426 503 549 q 688 678 539 678 q 778 613 751 678 q 804 457 804 547 l 800 246 q 890 38 800 38 l 969 50 q 983 49 976 50 q 932 16 969 28 q 858 4 894 4 q 752 67 788 4 q 714 201 717 131 q 711 321 711 271 l 714 444 q 706 561 714 506 q 667 617 699 617 q 576 419 619 617 q 522 43 532 221 q 463 17 499 18 q 442 21 451 17 q 428 262 429 93 q 411 531 428 431 q 336 631 394 631 q 272 544 297 631 q 200 125 232 410 q 188 29 192 58 q 128 4 158 4 l 107 7 q 88 582 88 239 q 147 607 103 607 z "},"n":{"ha":661,"x_min":81,"x_max":653,"o":"m 653 39 q 596 13 628 13 q 507 76 536 13 q 473 232 478 140 q 467 415 468 324 q 452 571 465 507 q 403 635 439 635 q 320 547 354 635 q 272 353 286 460 q 197 18 233 54 q 154 6 172 6 q 124 10 136 6 q 86 450 94 138 q 81 651 83 606 q 131 671 110 671 q 164 667 151 671 q 172 422 171 607 q 174 210 172 238 q 191 304 181 239 q 210 412 201 369 q 236 511 218 454 q 276 602 254 568 q 338 660 299 636 q 425 685 376 685 q 520 626 490 685 q 553 479 550 567 q 556 301 556 392 q 578 136 557 211 q 653 39 600 61 z "},"o":{"ha":681,"x_min":60,"x_max":626,"o":"m 130 576 q 165 631 130 576 q 333 685 200 685 q 547 576 467 685 q 626 330 626 468 q 539 96 626 192 q 317 0 451 0 q 121 76 182 0 q 60 289 60 151 q 130 576 60 468 m 191 503 q 182 476 191 503 q 163 394 172 449 q 154 294 154 340 q 161 209 154 247 q 185 134 168 171 q 235 76 201 97 q 314 54 268 54 q 470 131 407 54 q 533 315 533 207 q 476 526 533 424 q 335 628 418 628 q 247 593 285 628 q 191 503 210 558 z "},"p":{"ha":654,"x_min":74,"x_max":597,"o":"m 163 43 q 190 -275 167 -69 q 128 -301 164 -301 q 113 -300 121 -301 q 92 -54 111 -246 q 74 240 74 138 q 86 417 74 342 q 129 557 99 492 q 360 692 192 692 q 531 578 464 692 q 597 313 597 464 q 519 103 597 193 q 304 13 442 13 q 163 43 219 13 m 349 617 q 192 494 231 617 q 158 207 158 390 q 160 108 158 140 q 328 82 283 82 q 456 147 408 82 q 503 304 503 211 q 462 529 503 442 q 349 617 421 617 z "},"q":{"ha":643,"x_min":61,"x_max":572,"o":"m 473 619 q 499 591 473 619 q 541 476 525 563 q 559 317 557 390 q 561 188 561 243 q 556 60 561 133 q 550 -122 550 -12 q 572 -294 550 -232 q 515 -325 553 -325 q 492 -319 503 -325 q 482 -111 482 -233 l 485 69 q 476 275 485 189 q 314 42 406 88 q 219 19 272 19 q 96 81 131 19 q 61 236 61 142 q 76 402 61 331 q 121 537 90 474 q 206 638 151 600 q 340 675 260 675 q 473 619 421 675 m 440 514 q 403 577 440 544 q 318 610 367 610 q 235 572 269 610 q 182 476 200 535 q 147 281 147 364 q 219 94 147 94 q 326 142 281 94 q 394 260 372 189 q 440 514 440 399 z "},"r":{"ha":553,"x_min":69,"x_max":549,"o":"m 218 136 l 222 57 q 205 15 222 26 q 170 3 188 3 q 135 8 153 3 q 88 410 104 169 q 69 682 72 650 q 113 701 90 701 q 154 696 136 701 q 163 518 160 656 q 169 346 165 381 q 239 564 189 463 q 312 655 267 621 q 409 689 357 689 q 505 642 461 689 q 549 558 549 596 q 532 537 549 544 q 495 529 515 529 q 464 544 475 529 q 449 578 453 560 q 431 613 444 597 q 393 628 417 628 q 286 515 331 628 q 218 136 218 347 z "},"s":{"ha":606,"x_min":35,"x_max":568,"o":"m 431 556 q 383 606 418 588 q 297 624 349 624 q 201 593 246 624 q 156 511 156 563 q 198 430 156 460 q 301 385 240 400 q 422 352 361 369 q 526 295 483 335 q 568 192 568 256 q 491 50 568 99 q 306 1 414 1 q 138 36 242 1 q 35 119 35 71 q 96 156 35 156 q 143 133 114 156 q 325 68 232 68 q 411 85 375 68 q 478 188 478 117 q 435 257 478 231 q 333 299 393 283 q 211 332 272 314 q 108 392 150 350 q 65 500 65 435 q 142 638 65 585 q 331 690 218 690 q 469 651 407 690 q 531 536 531 611 q 474 486 531 486 q 442 494 450 486 q 434 524 435 503 q 431 556 433 546 z "},"t":{"ha":497,"x_min":-1,"x_max":497,"o":"m 83 582 q -1 613 21 582 q 17 647 -1 635 q 58 663 36 660 q 131 669 81 667 q 135 766 135 707 q 138 867 136 825 q 171 1001 142 976 q 198 1013 183 1013 q 224 1010 213 1013 q 228 889 228 910 l 219 681 q 235 679 222 679 l 335 683 q 443 650 443 683 q 404 594 443 603 q 362 590 386 590 q 299 597 338 590 q 244 603 261 603 q 222 601 228 603 q 218 522 218 561 q 220 423 218 482 q 231 282 222 364 q 271 141 240 200 q 349 82 301 82 q 404 101 372 82 q 453 119 436 119 q 484 112 471 119 q 497 94 497 104 q 438 38 497 65 q 338 11 379 11 q 147 300 185 11 q 131 586 136 383 q 83 582 108 582 z "},"u":{"ha":636,"x_min":63,"x_max":581,"o":"m 196 651 q 160 449 160 583 q 236 125 160 246 q 342 54 281 54 q 442 119 404 54 q 486 342 486 200 q 436 604 486 519 q 410 663 414 644 q 419 689 407 681 q 461 697 432 697 q 572 522 546 697 q 581 425 581 474 q 531 172 581 299 q 307 -1 460 -1 q 169 58 226 -1 q 63 401 63 172 q 76 554 63 501 q 100 623 90 607 q 124 653 110 639 q 155 664 138 667 q 196 651 172 661 z "},"v":{"ha":624,"x_min":17,"x_max":618,"o":"m 17 668 q 71 694 29 694 q 101 686 89 694 q 178 471 140 579 q 310 157 249 272 q 423 499 339 326 q 576 671 507 671 q 618 661 597 671 q 389 106 458 451 q 358 14 375 25 q 321 1 340 1 q 291 10 301 1 q 276 26 281 18 q 263 54 271 35 q 251 81 256 74 q 17 668 110 346 z "},"w":{"ha":933,"x_min":76,"x_max":876,"o":"m 456 161 q 370 53 433 97 q 233 8 307 8 q 117 83 158 8 q 76 289 76 157 q 186 661 76 661 q 221 657 200 661 q 201 572 217 635 q 171 357 171 450 q 197 160 171 264 q 272 57 224 57 q 321 89 297 57 q 358 156 344 121 q 388 238 372 192 q 407 293 403 283 q 386 457 386 374 q 386 483 386 461 q 388 525 386 504 q 396 575 389 546 q 471 633 410 633 q 522 478 522 633 q 515 397 522 450 q 507 324 507 344 q 568 158 507 260 q 683 57 629 57 q 761 118 736 57 q 786 254 786 179 q 772 385 786 340 q 753 444 757 431 q 735 488 750 458 q 717 526 721 518 q 696 567 714 535 q 675 603 678 599 q 628 681 635 674 q 692 710 663 710 q 826 510 776 649 q 876 259 876 372 q 828 81 876 146 q 679 17 781 17 q 545 56 608 17 q 456 161 482 96 z "},"x":{"ha":538,"x_min":38,"x_max":599,"o":"m 38 653 q 97 685 61 685 q 125 678 111 685 q 247 336 154 492 q 394 657 308 450 q 448 675 428 675 q 481 671 468 675 q 415 503 453 581 q 344 360 378 425 q 296 264 311 294 q 362 187 335 215 q 438 128 389 158 q 558 86 501 86 q 599 75 588 86 q 525 28 583 28 q 331 104 428 28 q 288 140 294 133 q 250 176 282 146 q 219 118 239 160 q 185 52 199 76 q 147 15 171 28 q 106 1 124 1 q 74 6 89 1 q 140 131 96 51 q 199 239 183 210 q 88 441 129 347 q 38 653 47 535 z "},"y":{"ha":614,"x_min":-3,"x_max":542,"o":"m 414 583 q 478 683 414 683 q 503 681 490 683 q 503 590 503 664 q 522 296 503 517 q 542 -35 542 75 q 481 -276 542 -210 q 273 -343 419 -343 q -3 -249 126 -343 q 63 -218 22 -218 q 111 -239 78 -219 q 275 -297 210 -297 q 413 -236 372 -297 q 453 -31 453 -175 q 446 219 453 4 q 436 184 444 215 q 424 143 428 153 q 409 107 419 133 q 388 69 399 81 q 358 43 376 58 q 281 15 328 15 q 207 28 235 15 q 160 67 179 40 q 127 122 142 93 q 104 197 113 151 q 91 279 96 242 q 84 371 86 317 q 81 461 82 425 q 81 553 81 497 l 81 636 q 131 660 94 660 q 181 624 181 660 l 172 489 q 210 185 172 313 q 288 57 247 57 q 342 90 318 57 q 378 184 365 124 q 399 299 390 244 q 410 425 407 353 q 414 583 414 535 z "},"z":{"ha":611,"x_min":32,"x_max":588,"o":"m 206 94 q 503 113 418 113 q 588 72 588 113 q 556 38 588 43 q 452 33 531 33 q 253 24 374 33 q 92 15 133 15 q 51 39 51 15 q 139 151 51 72 l 222 236 q 324 344 285 300 q 401 449 363 388 q 439 551 439 510 q 343 608 439 608 q 209 592 297 608 q 76 575 121 575 q 32 606 32 575 q 158 665 32 644 q 374 685 283 685 q 533 586 533 685 q 476 430 533 521 q 316 222 418 339 q 206 94 214 106 z "},"{":{"ha":460,"x_min":36,"x_max":442,"o":"m 326 18 q 365 33 340 18 q 404 47 389 47 q 431 35 419 47 q 442 0 442 22 q 405 -40 442 -22 q 329 -57 368 -57 q 226 -17 263 -57 q 176 85 189 22 q 154 213 163 147 q 122 341 146 278 q 56 433 99 404 q 36 468 36 446 q 56 503 36 490 q 128 581 107 532 q 149 674 149 629 l 149 713 q 170 898 149 840 q 236 976 192 956 q 361 997 281 997 q 390 978 383 997 q 387 940 397 960 q 356 918 376 921 q 243 842 263 910 q 229 724 231 797 q 221 613 228 651 q 188 531 214 574 q 126 468 161 489 q 218 349 200 424 q 224 275 221 336 q 232 161 226 214 q 261 63 238 108 q 326 18 285 18 z "},"|":{"ha":279,"x_min":86,"x_max":196,"o":"m 86 1004 q 99 1031 86 1021 q 126 1042 111 1042 q 153 1032 140 1042 q 165 1004 165 1022 q 196 -108 192 14 q 181 -140 196 -132 q 157 -147 167 -147 l 138 -142 q 117 -108 118 -132 q 86 1004 113 14 z "},"}":{"ha":406,"x_min":39,"x_max":367,"o":"m 249 682 q 303 549 249 549 q 367 508 367 549 q 354 483 367 494 q 294 242 306 442 q 281 87 290 163 q 240 -38 271 11 q 151 -87 208 -87 q 81 -74 122 -87 q 39 -35 39 -60 q 51 -1 39 -10 q 76 6 63 8 q 108 -1 89 4 q 142 -6 128 -6 q 171 7 156 -6 q 194 44 186 19 q 208 92 203 68 q 218 208 218 135 l 217 300 q 272 486 217 424 q 196 569 225 503 q 167 697 167 635 q 179 838 167 697 q 133 896 179 896 q 106 892 125 896 q 74 887 86 888 q 50 894 61 886 q 39 925 39 903 q 81 969 39 954 q 164 985 124 985 q 260 872 260 985 q 256 818 260 861 q 249 682 249 740 z "},"~":{"ha":775,"x_min":60,"x_max":714,"o":"m 638 557 q 671 585 642 585 q 699 574 683 585 q 714 543 714 564 q 665 401 714 458 q 536 343 617 343 q 411 401 488 343 q 283 458 335 458 q 133 342 206 458 q 101 322 122 322 q 69 337 79 322 q 60 362 60 351 q 65 382 60 372 q 168 506 114 461 q 297 551 222 551 q 428 490 347 551 q 551 428 510 428 q 609 456 592 428 q 638 557 626 485 z "},"¡":{"ha":297,"x_min":67,"x_max":236,"o":"m 183 -297 q 164 -324 182 -314 q 124 -335 146 -335 q 86 -307 86 -335 q 107 308 89 103 q 128 334 108 324 q 168 344 149 344 q 203 317 203 344 q 183 -297 183 113 m 172 550 q 135 547 157 547 q 90 564 114 547 q 67 610 67 581 q 97 663 67 639 q 152 688 126 688 q 207 669 178 688 q 236 629 236 650 q 172 550 236 563 z "},"¢":{"ha":547,"x_min":65,"x_max":499,"o":"m 464 571 q 410 543 464 543 q 353 565 375 543 q 331 160 332 233 q 413 217 369 182 q 460 226 422 226 q 499 210 499 226 q 438 156 499 194 q 329 101 376 118 q 332 -40 332 -15 q 332 -68 332 -64 q 313 -91 331 -83 q 282 -99 296 -99 q 253 -79 253 -99 q 250 6 250 -35 q 251 82 250 47 q 247 82 250 82 q 106 144 147 82 q 65 296 65 207 q 121 524 65 413 q 185 604 144 571 q 279 647 226 638 q 283 740 282 681 q 286 818 285 799 q 327 847 289 847 q 365 818 365 847 q 358 643 360 701 q 426 610 389 632 q 464 571 464 589 m 163 350 q 160 322 160 336 q 162 283 160 307 q 171 226 164 258 q 199 168 178 193 q 250 139 219 143 q 263 392 254 246 q 275 589 272 539 q 201 497 233 575 q 163 350 168 419 z "},"£":{"ha":1007,"x_min":49,"x_max":960,"o":"m 557 510 l 375 513 q 401 222 375 401 q 471 232 450 232 q 621 169 511 232 q 781 107 731 107 q 860 156 832 107 q 931 181 874 181 q 960 163 960 181 q 957 150 960 157 q 767 25 882 25 q 600 97 710 25 q 436 168 490 168 q 321 128 382 168 q 206 47 260 88 q 115 7 153 7 q 78 29 78 7 q 160 102 78 47 q 299 183 243 157 q 268 508 268 382 q 131 492 179 504 q 49 514 49 472 q 271 572 49 558 q 349 811 282 713 q 441 892 383 863 q 585 922 499 922 q 751 853 672 922 q 867 672 831 783 q 819 633 867 644 q 787 629 804 629 q 763 646 769 629 q 680 795 738 729 q 551 861 622 861 q 376 576 406 861 l 478 579 q 601 549 601 579 q 589 522 601 533 q 557 510 576 510 z "},"¥":{"ha":768,"x_min":56,"x_max":722,"o":"m 276 504 l 139 499 q 97 500 111 499 q 69 510 83 501 q 56 539 56 519 q 90 571 56 571 q 240 574 150 571 q 165 747 215 626 q 97 896 114 867 q 81 932 81 925 q 111 964 81 956 q 131 965 118 965 q 153 949 143 965 q 261 724 197 874 q 361 511 325 574 q 496 716 392 561 q 642 947 600 871 q 675 967 651 967 q 710 955 699 967 q 722 935 722 943 q 719 919 722 926 q 506 585 675 835 l 569 588 q 660 547 660 588 q 596 513 660 513 q 461 517 532 513 q 415 439 433 475 l 618 449 q 649 435 636 449 q 663 407 663 422 q 493 367 663 367 l 400 368 l 388 13 q 349 -18 383 -18 q 319 -7 333 -18 q 306 21 306 4 q 317 369 317 128 l 213 367 q 79 410 79 367 q 90 435 79 425 q 118 446 100 446 l 269 438 q 315 439 293 438 q 276 504 314 442 z "},"§":{"ha":647,"x_min":53,"x_max":603,"o":"m 497 911 q 466 890 497 890 q 399 885 435 890 q 324 867 364 879 q 260 827 285 854 q 235 763 235 800 q 421 633 235 703 q 603 454 603 560 q 550 347 603 397 q 425 261 497 296 q 464 169 464 222 q 365 -22 464 82 q 185 -157 267 -125 q 162 -160 176 -160 q 134 -142 147 -160 q 121 -114 121 -125 q 144 -89 121 -97 q 293 28 217 -57 q 369 176 369 113 q 258 268 369 238 q 164 294 211 281 q 53 399 53 328 q 129 517 53 454 q 274 619 186 564 q 183 696 219 650 q 147 789 147 742 q 200 879 147 836 q 320 942 253 922 q 447 963 388 963 q 493 931 478 963 q 497 911 497 919 m 342 310 q 508 461 508 375 q 446 539 508 508 l 419 553 q 361 578 382 571 q 178 449 203 476 q 153 407 153 421 q 235 342 153 374 q 342 310 317 310 z "},"¨":{"ha":668,"x_min":94,"x_max":578,"o":"m 200 890 q 243 878 218 890 q 268 849 268 867 q 233 790 268 808 q 146 772 197 772 q 94 804 94 772 q 200 890 94 890 m 396 803 q 430 867 396 842 q 495 892 464 892 q 552 877 526 892 q 578 843 578 863 q 534 790 578 808 q 458 772 490 772 q 396 803 396 772 z "},"©":{"ha":1013,"x_min":75,"x_max":936,"o":"m 492 107 q 397 107 492 107 q 188 226 301 107 q 75 515 75 344 q 213 808 75 686 q 524 931 350 931 q 817 811 697 931 q 936 514 936 692 q 810 222 936 336 q 492 107 683 107 m 138 475 q 236 250 138 336 q 486 164 335 164 q 753 253 638 164 q 869 498 869 343 q 777 765 869 653 q 549 876 685 876 q 258 758 379 876 q 138 475 138 639 m 625 404 q 660 406 639 415 q 682 378 682 397 q 626 326 682 347 q 531 306 571 306 q 403 351 460 306 q 347 474 347 397 q 401 615 347 550 q 518 679 456 679 q 601 652 550 679 q 651 597 651 625 q 642 580 651 588 q 618 572 632 572 q 578 599 604 572 q 531 625 551 625 q 451 570 489 625 q 414 466 414 515 q 447 389 414 417 q 528 361 479 361 q 625 404 578 361 z "},"ª":{"ha":504,"x_min":63,"x_max":453,"o":"m 324 840 l 322 792 q 376 688 322 688 q 403 693 381 688 q 453 671 453 706 q 424 644 453 654 q 375 633 396 633 q 282 715 310 633 q 157 618 221 618 q 90 648 117 618 q 63 738 63 678 q 108 857 63 799 q 211 915 153 915 q 281 890 238 915 q 324 840 324 865 m 210 860 q 142 820 172 860 q 111 747 111 781 q 124 691 111 714 q 162 668 136 668 q 221 724 188 668 q 269 832 254 781 q 239 848 254 836 q 210 860 224 860 z "},"«":{"ha":925,"x_min":43,"x_max":876,"o":"m 856 188 q 876 171 876 181 q 857 144 876 161 q 811 128 838 128 q 738 148 793 128 q 649 186 683 168 q 597 215 615 204 q 544 252 579 225 q 498 290 510 279 q 442 340 486 300 q 388 389 399 379 q 376 404 376 399 q 458 497 376 432 q 647 622 540 561 q 776 683 753 683 q 811 660 800 683 q 815 647 815 653 q 793 622 815 632 q 621 519 747 601 q 494 413 494 438 q 632 288 494 363 q 856 188 769 214 m 515 161 q 536 144 536 154 q 517 118 536 135 q 471 101 497 101 q 454 104 460 101 q 324 158 382 126 q 237 217 267 190 q 147 301 207 243 q 49 393 88 358 q 43 404 43 399 q 125 497 43 432 q 313 622 207 561 q 443 683 419 683 q 478 661 467 683 q 481 650 481 656 q 458 624 481 635 q 288 520 414 603 q 161 413 161 438 q 302 274 161 364 q 515 161 443 183 z "},"®":{"ha":994,"x_min":78,"x_max":922,"o":"m 78 469 q 176 792 78 664 q 464 921 275 921 q 788 798 653 921 q 922 489 922 675 q 790 175 922 303 q 439 47 657 47 q 78 469 78 47 m 446 97 q 735 219 607 97 q 863 498 863 340 q 740 760 863 656 q 471 865 618 865 q 317 831 383 865 q 214 736 251 796 q 139 449 139 617 q 224 189 139 281 q 446 97 308 97 m 319 276 l 325 604 q 374 640 325 625 q 486 656 424 656 q 598 625 549 656 q 647 528 647 594 q 501 399 647 439 q 565 356 507 396 q 650 304 622 317 q 678 274 678 292 q 668 252 678 257 q 651 247 658 247 q 623 256 644 247 q 519 321 601 265 q 393 392 438 376 l 393 333 q 392 311 393 319 q 389 292 390 303 q 385 274 388 281 q 378 260 382 267 q 358 247 372 247 q 331 256 343 247 q 319 276 319 264 m 393 538 l 392 476 q 393 439 392 450 q 544 484 511 458 q 578 543 578 510 q 493 600 578 600 q 429 592 460 600 q 392 583 399 585 q 393 538 393 565 z "},"°":{"ha":490,"x_min":57,"x_max":440,"o":"m 57 753 q 123 899 57 839 q 263 960 189 960 q 389 917 338 960 q 440 804 440 875 q 365 669 440 733 q 208 606 289 606 q 92 649 128 606 q 57 753 57 692 m 151 767 q 151 748 151 767 q 168 701 151 728 q 225 674 185 674 q 304 713 265 674 q 343 792 343 751 q 318 860 343 832 q 252 888 293 888 q 181 847 211 888 q 151 767 151 807 z "},"±":{"ha":604,"x_min":78,"x_max":524,"o":"m 254 315 l 267 418 q 154 411 174 411 q 119 426 135 411 q 104 458 104 440 q 131 478 104 472 q 208 486 157 483 q 271 490 258 489 l 269 565 q 315 665 269 665 q 345 655 333 665 q 357 628 357 644 q 353 499 357 564 q 452 510 438 510 q 482 496 467 510 q 497 469 497 482 q 492 452 497 457 q 477 444 488 447 q 456 438 467 440 q 430 434 446 436 q 403 431 414 432 q 375 429 392 431 q 351 428 358 428 q 306 272 347 272 q 271 285 288 272 q 254 315 254 299 m 136 194 l 475 204 q 519 169 506 203 q 524 153 524 160 q 493 133 524 132 q 472 133 483 133 l 182 124 q 124 125 150 124 q 83 156 97 126 q 78 174 78 165 q 108 194 78 193 q 136 194 121 194 z "},"´":{"ha":519,"x_min":101,"x_max":469,"o":"m 110 792 q 251 887 157 828 q 364 959 344 946 q 402 972 383 972 q 445 965 421 972 q 469 946 469 957 q 453 926 469 938 q 343 855 438 915 q 201 758 249 794 q 172 750 190 750 q 128 758 154 750 q 101 778 101 767 q 110 792 101 783 z "},"µ":{"ha":929,"x_min":79,"x_max":894,"o":"m 319 567 q 443 89 319 89 q 540 158 500 89 q 597 332 581 228 q 625 632 625 518 q 642 677 625 667 q 678 678 660 688 q 703 651 697 668 q 728 329 726 579 q 763 177 729 253 q 869 69 797 101 q 894 36 894 57 q 881 8 894 15 q 849 8 867 1 q 721 116 761 49 q 668 279 681 183 q 469 18 604 18 q 309 117 368 18 q 250 351 250 215 q 202 -92 218 214 q 157 -532 186 -397 q 129 -556 153 -556 q 79 -519 88 -556 q 79 -511 79 -515 l 107 -215 q 136 94 124 -25 q 229 674 167 411 q 260 696 236 696 q 303 686 285 696 q 321 658 321 676 l 319 567 z "},"¶":{"ha":972,"x_min":44,"x_max":926,"o":"m 750 711 l 761 10 q 760 -219 761 -83 q 726 -247 757 -247 q 691 -235 701 -247 q 681 -211 681 -222 q 672 713 681 449 q 529 707 592 713 q 529 603 529 683 q 538 310 529 522 q 546 -20 546 99 q 540 -218 546 -139 q 504 -247 539 -247 q 478 -240 493 -247 q 463 -212 463 -232 l 467 4 q 467 149 467 76 q 463 221 467 221 q 365 208 424 208 q 142 277 239 208 q 44 464 44 346 q 96 624 44 558 q 236 722 147 690 q 619 781 400 781 q 892 767 722 781 q 918 752 910 765 q 926 728 926 739 q 896 701 926 701 l 750 711 z "},"·":{"ha":328,"x_min":79,"x_max":249,"o":"m 163 408 q 150 408 163 408 q 108 427 138 408 q 79 472 79 446 q 110 523 79 499 q 172 547 140 547 q 226 529 204 547 q 249 484 249 511 q 219 433 249 457 q 163 408 189 408 z "},"¸":{"ha":533,"x_min":63,"x_max":433,"o":"m 329 -26 q 404 -47 375 -26 q 433 -112 433 -68 q 365 -218 433 -182 q 200 -254 296 -254 q 63 -186 104 -254 q 83 -161 63 -174 q 129 -149 104 -149 q 173 -176 139 -149 q 247 -203 207 -203 q 313 -183 288 -203 q 339 -126 339 -162 q 299 -68 339 -68 q 276 -71 297 -68 q 229 -62 229 -78 q 298 77 229 -6 q 411 160 367 160 q 433 153 433 160 q 385 60 433 133 q 329 -26 336 -14 z "},"º":{"ha":404,"x_min":61,"x_max":343,"o":"m 199 625 q 168 625 199 625 q 99 653 138 625 q 61 734 61 681 q 99 846 61 788 q 196 904 136 904 q 299 872 256 904 q 343 777 343 840 q 301 669 343 714 q 199 625 260 625 m 111 740 q 111 724 111 740 q 135 692 111 708 q 195 676 158 676 q 263 704 232 676 q 293 774 293 732 q 264 833 293 815 q 202 851 235 851 q 140 811 169 851 q 111 740 111 771 z "},"»":{"ha":921,"x_min":46,"x_max":879,"o":"m 67 611 q 46 628 46 618 q 65 654 46 638 q 111 671 85 671 q 184 651 129 671 q 273 613 239 631 q 325 584 307 594 q 378 547 343 574 q 424 509 413 519 q 480 459 436 499 q 535 410 524 419 q 546 394 546 400 q 464 302 546 367 q 276 176 382 238 q 144 115 169 115 q 106 135 119 115 q 121 168 92 156 q 296 276 164 188 q 428 389 428 364 q 292 512 428 440 q 67 611 156 583 m 404 638 q 383 654 383 644 q 403 681 383 664 q 449 697 422 697 q 547 666 478 697 q 654 605 615 635 q 719 551 693 575 q 792 482 746 526 q 874 406 838 438 q 879 394 879 400 q 797 302 879 367 q 609 176 715 238 q 478 115 503 115 q 439 135 453 115 q 454 168 425 156 q 629 276 497 188 q 761 389 761 364 q 619 527 761 439 q 404 638 478 615 z "},"¿":{"ha":597,"x_min":40,"x_max":558,"o":"m 486 -147 q 510 -139 497 -139 q 541 -150 524 -139 q 558 -174 558 -161 q 540 -199 558 -187 q 293 -253 449 -253 q 60 -192 103 -253 q 40 -117 40 -165 q 82 2 40 -69 q 174 133 124 74 q 267 261 224 192 q 314 378 311 331 q 335 408 315 397 q 372 419 356 419 l 383 419 q 408 390 407 414 q 361 253 404 326 q 270 124 318 179 q 183 3 222 69 q 143 -110 143 -64 q 181 -172 143 -156 q 317 -189 218 -189 q 486 -147 417 -189 m 326 567 q 285 584 303 569 q 267 626 267 599 q 300 675 267 653 q 369 697 333 697 q 424 658 424 697 q 396 592 424 618 q 326 567 368 567 z "},"À":{"ha":964,"x_min":53,"x_max":918,"o":"m 918 7 q 854 -24 896 -24 q 832 -21 843 -24 q 781 225 801 49 q 765 343 772 303 q 463 349 614 349 q 192 336 311 349 q 165 166 179 279 q 143 14 150 53 q 81 -8 115 -8 q 53 3 68 -8 q 75 195 57 36 q 122 494 93 354 q 324 925 190 813 q 517 996 410 996 q 680 918 613 996 q 782 714 747 840 q 838 460 817 588 q 878 199 858 332 q 918 7 897 65 m 489 922 q 458 922 489 922 q 371 863 428 922 q 281 714 314 803 q 206 408 221 549 q 485 424 344 424 q 756 415 625 424 q 735 514 750 436 q 703 651 719 592 q 660 778 688 710 q 592 884 633 846 q 489 922 550 922 m 665 1131 q 683 1111 683 1124 q 669 1081 683 1101 q 631 1060 654 1060 q 618 1063 622 1060 q 364 1215 504 1103 q 354 1232 354 1224 q 361 1256 354 1240 q 408 1281 374 1281 q 426 1276 418 1281 q 665 1131 565 1167 z "},"Á":{"ha":964,"x_min":53,"x_max":918,"o":"m 918 7 q 854 -24 896 -24 q 832 -21 843 -24 q 781 225 801 49 q 765 343 772 303 q 463 349 614 349 q 192 336 311 349 q 165 166 179 279 q 143 14 150 53 q 81 -8 115 -8 q 53 3 68 -8 q 75 195 57 36 q 122 494 93 354 q 324 925 190 813 q 517 996 410 996 q 680 918 613 996 q 782 714 747 840 q 838 460 817 588 q 878 199 858 332 q 918 7 897 65 m 489 922 q 458 922 489 922 q 371 863 428 922 q 281 714 314 803 q 206 408 221 549 q 485 424 344 424 q 756 415 625 424 q 735 514 750 436 q 703 651 719 592 q 660 778 688 710 q 592 884 633 846 q 489 922 550 922 m 300 1115 q 441 1210 347 1151 q 554 1283 535 1269 q 592 1296 574 1296 q 635 1288 611 1296 q 660 1269 660 1281 q 644 1250 660 1261 q 533 1178 628 1239 q 392 1082 439 1118 q 363 1074 381 1074 q 318 1082 344 1074 q 292 1101 292 1090 q 300 1115 292 1107 z "},"Â":{"ha":964,"x_min":53,"x_max":918,"o":"m 918 7 q 854 -24 896 -24 q 832 -21 843 -24 q 781 225 801 49 q 765 343 772 303 q 463 349 614 349 q 192 336 311 349 q 165 166 179 279 q 143 14 150 53 q 81 -8 115 -8 q 53 3 68 -8 q 75 195 57 36 q 122 494 93 354 q 324 925 190 813 q 517 996 410 996 q 680 918 613 996 q 782 714 747 840 q 838 460 817 588 q 878 199 858 332 q 918 7 897 65 m 489 922 q 458 922 489 922 q 371 863 428 922 q 281 714 314 803 q 206 408 221 549 q 485 424 344 424 q 756 415 625 424 q 735 514 750 436 q 703 651 719 592 q 660 778 688 710 q 592 884 633 846 q 489 922 550 922 m 313 1138 q 341 1162 313 1138 q 411 1205 368 1186 q 505 1224 454 1224 q 588 1208 556 1224 q 640 1172 621 1192 q 682 1126 658 1153 q 722 1088 706 1100 q 726 1079 726 1083 q 701 1063 726 1071 q 649 1056 675 1056 q 567 1112 622 1056 q 488 1179 513 1168 q 436 1138 471 1169 q 365 1088 401 1106 q 289 1071 329 1071 q 247 1079 249 1071 l 250 1085 q 313 1138 258 1090 z "},"Ã":{"ha":964,"x_min":53,"x_max":918,"o":"m 918 7 q 854 -24 896 -24 q 832 -21 843 -24 q 781 225 801 49 q 765 343 772 303 q 463 349 614 349 q 192 336 311 349 q 165 166 179 279 q 143 14 150 53 q 81 -8 115 -8 q 53 3 68 -8 q 75 195 57 36 q 122 494 93 354 q 324 925 190 813 q 517 996 410 996 q 680 918 613 996 q 782 714 747 840 q 838 460 817 588 q 878 199 858 332 q 918 7 897 65 m 489 922 q 458 922 489 922 q 371 863 428 922 q 281 714 314 803 q 206 408 221 549 q 485 424 344 424 q 756 415 625 424 q 735 514 750 436 q 703 651 719 592 q 660 778 688 710 q 592 884 633 846 q 489 922 550 922 m 344 1082 q 289 1064 329 1064 q 249 1082 249 1064 q 254 1097 249 1089 q 421 1203 343 1203 q 525 1167 465 1203 q 599 1131 585 1131 q 622 1139 613 1131 q 636 1156 631 1147 q 663 1203 647 1172 q 715 1225 675 1225 q 721 1225 718 1225 q 757 1199 760 1224 l 753 1186 q 585 1061 692 1061 q 491 1096 549 1061 q 415 1131 433 1131 q 344 1082 385 1131 z "},"Ä":{"ha":964,"x_min":53,"x_max":918,"o":"m 918 7 q 854 -24 896 -24 q 832 -21 843 -24 q 781 225 801 49 q 765 343 772 303 q 463 349 614 349 q 192 336 311 349 q 165 166 179 279 q 143 14 150 53 q 81 -8 115 -8 q 53 3 68 -8 q 75 195 57 36 q 122 494 93 354 q 324 925 190 813 q 517 996 410 996 q 680 918 613 996 q 782 714 747 840 q 838 460 817 588 q 878 199 858 332 q 918 7 897 65 m 489 922 q 458 922 489 922 q 371 863 428 922 q 281 714 314 803 q 206 408 221 549 q 485 424 344 424 q 756 415 625 424 q 735 514 750 436 q 703 651 719 592 q 660 778 688 710 q 592 884 633 846 q 489 922 550 922 m 360 1196 q 403 1184 378 1196 q 428 1154 428 1172 q 392 1096 428 1114 q 306 1078 357 1078 q 254 1110 254 1078 q 360 1196 254 1196 m 556 1108 q 590 1172 556 1147 q 655 1197 624 1197 q 712 1183 686 1197 q 738 1149 738 1168 q 694 1096 738 1114 q 618 1078 650 1078 q 556 1108 556 1078 z "},"Å":{"ha":964,"x_min":53,"x_max":918,"o":"m 918 7 q 854 -24 896 -24 q 832 -21 843 -24 q 781 225 801 49 q 765 343 772 303 q 463 349 614 349 q 192 336 311 349 q 165 166 179 279 q 143 14 150 53 q 81 -8 115 -8 q 53 3 68 -8 q 75 195 57 36 q 122 494 93 354 q 324 925 190 813 q 517 996 410 996 q 680 918 613 996 q 782 714 747 840 q 838 460 817 588 q 878 199 858 332 q 918 7 897 65 m 489 922 q 458 922 489 922 q 371 863 428 922 q 281 714 314 803 q 206 408 221 549 q 485 424 344 424 q 756 415 625 424 q 735 514 750 436 q 703 651 719 592 q 660 778 688 710 q 592 884 633 846 q 489 922 550 922 m 556 1288 q 636 1262 596 1283 q 676 1207 676 1240 q 624 1090 676 1138 q 500 1042 572 1042 q 410 1065 456 1042 q 365 1124 365 1089 q 424 1239 365 1193 q 556 1288 483 1285 m 468 1138 q 482 1106 468 1121 q 518 1090 496 1090 q 560 1121 540 1090 q 581 1175 581 1151 q 566 1217 581 1199 q 531 1239 551 1236 q 468 1138 468 1196 z "},"Æ":{"ha":1368,"x_min":6,"x_max":1315,"o":"m 811 479 q 804 117 811 471 q 1260 126 831 118 q 1310 94 1293 126 q 1315 75 1315 83 q 1282 50 1315 53 q 1011 41 1186 42 q 778 38 836 40 q 714 111 714 38 l 718 328 q 539 319 663 328 q 366 311 415 311 q 293 313 317 311 q 93 32 163 144 q 59 15 82 15 q 21 32 36 15 q 6 60 6 49 q 13 81 6 71 q 214 353 93 182 q 448 675 335 525 q 674 946 561 825 q 775 971 697 971 q 1260 993 853 971 q 1311 961 1296 993 q 1315 943 1315 950 q 1282 915 1315 922 q 1085 899 1168 900 q 781 894 824 894 q 810 560 804 756 q 1072 572 910 572 q 1186 521 1186 572 q 1153 489 1186 489 q 811 479 1089 489 m 354 390 l 719 406 l 707 840 q 501 583 632 756 q 354 390 369 410 z "},"Ç":{"ha":1022,"x_min":67,"x_max":1003,"o":"m 1003 238 q 812 60 946 125 q 517 -8 678 -4 q 499 -39 513 -17 q 479 -74 485 -61 q 567 -95 528 -74 q 606 -160 606 -117 q 537 -265 606 -229 q 372 -301 468 -301 q 235 -233 276 -301 q 256 -208 235 -221 q 301 -196 276 -196 q 345 -223 311 -196 q 419 -250 379 -250 q 485 -230 460 -250 q 511 -180 511 -210 q 492 -133 511 -150 q 449 -115 472 -115 q 426 -118 447 -115 q 379 -110 379 -125 q 435 -6 379 -56 q 169 107 272 10 q 67 376 67 204 q 106 602 67 493 q 213 795 144 711 q 385 929 282 879 q 610 979 489 979 q 896 785 825 979 q 860 757 875 765 q 830 756 844 749 q 810 767 815 763 q 788 794 804 771 q 768 822 772 817 q 585 910 697 910 q 376 838 474 910 q 218 650 278 767 q 158 407 158 533 q 262 153 158 251 q 537 54 365 54 q 838 150 708 54 q 883 194 858 165 q 924 236 907 224 q 958 247 942 249 q 1003 238 974 246 z "},"È":{"ha":875,"x_min":114,"x_max":836,"o":"m 422 908 q 231 901 308 908 q 215 678 215 824 l 217 615 q 215 529 217 575 q 382 518 279 518 l 569 519 q 669 489 669 519 q 535 436 669 436 l 219 446 q 216 288 218 413 q 204 78 214 164 q 353 72 293 72 q 568 82 413 72 q 738 89 682 89 q 815 81 794 89 q 836 52 836 74 q 825 22 836 31 q 811 15 818 18 q 794 9 804 11 q 776 6 783 7 q 755 3 768 4 q 734 2 742 3 q 713 1 726 1 q 561 -5 700 1 q 346 -11 422 -11 q 117 53 117 -11 q 114 299 114 182 q 139 939 114 683 q 208 979 153 961 q 463 997 263 997 l 676 993 q 824 968 783 993 q 794 917 819 929 q 722 904 769 904 l 422 908 m 629 1142 q 647 1122 647 1135 q 633 1092 647 1113 q 594 1071 618 1071 q 582 1074 586 1071 q 328 1226 468 1114 q 318 1243 318 1235 q 325 1267 318 1251 q 372 1292 338 1292 q 390 1288 382 1292 q 629 1142 529 1178 z "},"É":{"ha":875,"x_min":114,"x_max":836,"o":"m 422 908 q 231 901 308 908 q 215 678 215 824 l 217 615 q 215 529 217 575 q 382 518 279 518 l 569 519 q 669 489 669 519 q 535 436 669 436 l 219 446 q 216 288 218 413 q 204 78 214 164 q 353 72 293 72 q 568 82 413 72 q 738 89 682 89 q 815 81 794 89 q 836 52 836 74 q 825 22 836 31 q 811 15 818 18 q 794 9 804 11 q 776 6 783 7 q 755 3 768 4 q 734 2 742 3 q 713 1 726 1 q 561 -5 700 1 q 346 -11 422 -11 q 117 53 117 -11 q 114 299 114 182 q 139 939 114 683 q 208 979 153 961 q 463 997 263 997 l 676 993 q 824 968 783 993 q 794 917 819 929 q 722 904 769 904 l 422 908 m 325 1117 q 466 1212 372 1153 q 579 1284 560 1271 q 617 1297 599 1297 q 660 1290 636 1297 q 685 1271 685 1282 q 669 1251 685 1263 q 558 1180 653 1240 q 417 1083 464 1119 q 388 1075 406 1075 q 343 1083 369 1075 q 317 1103 317 1092 q 325 1117 317 1108 z "},"Ê":{"ha":875,"x_min":114,"x_max":836,"o":"m 422 908 q 231 901 308 908 q 215 678 215 824 l 217 615 q 215 529 217 575 q 382 518 279 518 l 569 519 q 669 489 669 519 q 535 436 669 436 l 219 446 q 216 288 218 413 q 204 78 214 164 q 353 72 293 72 q 568 82 413 72 q 738 89 682 89 q 815 81 794 89 q 836 52 836 74 q 825 22 836 31 q 811 15 818 18 q 794 9 804 11 q 776 6 783 7 q 755 3 768 4 q 734 2 742 3 q 713 1 726 1 q 561 -5 700 1 q 346 -11 422 -11 q 117 53 117 -11 q 114 299 114 182 q 139 939 114 683 q 208 979 153 961 q 463 997 263 997 l 676 993 q 824 968 783 993 q 794 917 819 929 q 722 904 769 904 l 422 908 m 297 1148 q 324 1172 297 1148 q 394 1215 351 1196 q 488 1233 438 1233 q 572 1217 539 1233 q 623 1182 604 1201 q 665 1136 642 1163 q 706 1097 689 1110 q 710 1089 710 1093 q 684 1073 710 1081 q 632 1065 658 1065 q 551 1122 606 1065 q 471 1189 496 1178 q 419 1147 454 1179 q 349 1098 385 1115 q 272 1081 313 1081 q 231 1089 232 1081 l 233 1094 q 297 1148 242 1100 z "},"Ë":{"ha":875,"x_min":114,"x_max":836,"o":"m 422 908 q 231 901 308 908 q 215 678 215 824 l 217 615 q 215 529 217 575 q 382 518 279 518 l 569 519 q 669 489 669 519 q 535 436 669 436 l 219 446 q 216 288 218 413 q 204 78 214 164 q 353 72 293 72 q 568 82 413 72 q 738 89 682 89 q 815 81 794 89 q 836 52 836 74 q 825 22 836 31 q 811 15 818 18 q 794 9 804 11 q 776 6 783 7 q 755 3 768 4 q 734 2 742 3 q 713 1 726 1 q 561 -5 700 1 q 346 -11 422 -11 q 117 53 117 -11 q 114 299 114 182 q 139 939 114 683 q 208 979 153 961 q 463 997 263 997 l 676 993 q 824 968 783 993 q 794 917 819 929 q 722 904 769 904 l 422 908 m 333 1199 q 376 1187 351 1199 q 401 1157 401 1175 q 366 1099 401 1117 q 279 1081 331 1081 q 228 1113 228 1081 q 333 1199 228 1199 m 529 1111 q 563 1175 529 1150 q 628 1200 597 1200 q 685 1185 660 1200 q 711 1151 711 1171 q 667 1099 711 1117 q 592 1081 624 1081 q 529 1111 529 1081 z "},"Ì":{"ha":339,"x_min":15,"x_max":344,"o":"m 176 992 q 226 978 196 992 q 211 -3 213 350 q 174 -25 190 -25 q 147 -18 158 -25 q 115 60 115 3 q 126 858 118 728 q 176 992 126 992 m 326 1139 q 344 1119 344 1132 q 330 1089 344 1110 q 292 1068 315 1068 q 279 1071 283 1068 q 25 1224 165 1111 q 15 1240 15 1232 q 22 1264 15 1249 q 69 1289 35 1289 q 88 1285 79 1289 q 326 1139 226 1175 z "},"Í":{"ha":339,"x_min":-8,"x_max":360,"o":"m 176 992 q 226 978 196 992 q 211 -3 213 350 q 174 -25 190 -25 q 147 -18 158 -25 q 115 60 115 3 q 126 858 118 728 q 176 992 126 992 m 0 1111 q 141 1206 47 1147 q 254 1278 235 1265 q 292 1292 274 1292 q 335 1284 311 1292 q 360 1265 360 1276 q 344 1246 360 1257 q 233 1174 328 1235 q 92 1078 139 1114 q 63 1069 81 1069 q 18 1078 44 1069 q -8 1097 -8 1086 q 0 1111 -8 1103 z "},"Î":{"ha":339,"x_min":-65,"x_max":414,"o":"m 176 992 q 226 978 196 992 q 211 -3 213 350 q 174 -25 190 -25 q 147 -18 158 -25 q 115 60 115 3 q 126 858 118 728 q 176 992 126 992 m 1 1149 q 28 1173 1 1149 q 99 1216 56 1197 q 192 1235 142 1235 q 276 1219 243 1235 q 327 1183 308 1203 q 369 1138 346 1164 q 410 1099 393 1111 q 414 1090 414 1094 q 388 1074 414 1082 q 336 1067 363 1067 q 255 1123 310 1067 q 175 1190 200 1179 q 124 1149 158 1181 q 53 1099 89 1117 q -24 1082 17 1082 q -65 1090 -64 1082 l -62 1096 q 1 1149 -54 1101 z "},"Ï":{"ha":339,"x_min":-57,"x_max":426,"o":"m 176 992 q 226 978 196 992 q 211 -3 213 350 q 174 -25 190 -25 q 147 -18 158 -25 q 115 60 115 3 q 126 858 118 728 q 176 992 126 992 m 49 1200 q 92 1188 67 1200 q 117 1158 117 1176 q 81 1100 117 1118 q -6 1082 46 1082 q -57 1114 -57 1082 q 49 1200 -57 1200 m 244 1113 q 278 1176 244 1151 q 344 1201 313 1201 q 401 1187 375 1201 q 426 1153 426 1172 q 383 1100 426 1118 q 307 1082 339 1082 q 244 1113 244 1082 z "},"Ñ":{"ha":1085,"x_min":117,"x_max":969,"o":"m 958 36 q 958 -17 958 8 q 881 -47 919 -43 q 861 -42 872 -47 q 842 -34 850 -37 q 822 -15 835 -31 q 806 8 810 1 q 787 39 801 15 q 767 72 772 63 q 688 199 761 81 q 514 468 614 318 q 217 828 361 694 q 224 439 224 646 q 215 -3 224 232 q 122 -28 199 -28 q 117 939 122 757 q 172 964 143 964 q 297 883 217 964 q 576 549 444 736 q 861 108 707 361 q 867 544 861 257 q 874 969 874 831 q 921 992 896 992 q 960 983 946 992 q 969 679 969 799 l 958 36 m 408 1069 q 353 1051 393 1051 q 313 1069 313 1051 q 318 1085 313 1076 q 485 1190 407 1190 q 589 1154 529 1190 q 663 1118 649 1118 q 685 1126 676 1118 q 700 1143 694 1135 q 726 1190 711 1160 q 779 1213 739 1213 q 785 1213 782 1213 q 821 1186 824 1211 l 817 1174 q 649 1049 756 1049 q 555 1083 613 1049 q 479 1118 497 1118 q 408 1069 449 1118 z "},"Ò":{"ha":1132,"x_min":68,"x_max":1065,"o":"m 1065 486 q 1065 426 1065 486 q 1017 263 1065 367 q 890 97 968 158 q 544 -28 731 -28 q 206 98 343 -28 q 68 442 68 224 q 140 726 68 607 q 321 901 211 846 q 561 956 431 956 q 906 840 756 956 q 1022 695 978 785 q 1065 486 1065 606 m 160 439 q 262 153 160 260 q 533 46 364 46 q 848 166 729 46 q 967 470 967 286 q 847 764 967 654 q 557 874 728 874 q 273 762 386 874 q 160 439 160 650 m 679 1119 q 697 1100 697 1113 q 683 1069 697 1090 q 644 1049 668 1049 q 632 1051 636 1049 q 378 1204 518 1092 q 368 1221 368 1213 q 375 1244 368 1229 q 422 1269 388 1269 q 440 1265 432 1269 q 679 1119 579 1156 z "},"Ó":{"ha":1132,"x_min":68,"x_max":1065,"o":"m 1065 486 q 1065 426 1065 486 q 1017 263 1065 367 q 890 97 968 158 q 544 -28 731 -28 q 206 98 343 -28 q 68 442 68 224 q 140 726 68 607 q 321 901 211 846 q 561 956 431 956 q 906 840 756 956 q 1022 695 978 785 q 1065 486 1065 606 m 160 439 q 262 153 160 260 q 533 46 364 46 q 848 166 729 46 q 967 470 967 286 q 847 764 967 654 q 557 874 728 874 q 273 762 386 874 q 160 439 160 650 m 383 1088 q 524 1183 431 1124 q 638 1255 618 1242 q 676 1268 657 1268 q 719 1260 694 1268 q 743 1242 743 1253 q 727 1222 743 1233 q 617 1151 711 1211 q 475 1054 522 1090 q 446 1046 464 1046 q 401 1054 428 1046 q 375 1074 375 1063 q 383 1088 375 1079 z "},"Ô":{"ha":1132,"x_min":68,"x_max":1065,"o":"m 1065 486 q 1065 426 1065 486 q 1017 263 1065 367 q 890 97 968 158 q 544 -28 731 -28 q 206 98 343 -28 q 68 442 68 224 q 140 726 68 607 q 321 901 211 846 q 561 956 431 956 q 906 840 756 956 q 1022 695 978 785 q 1065 486 1065 606 m 160 439 q 262 153 160 260 q 533 46 364 46 q 848 166 729 46 q 967 470 967 286 q 847 764 967 654 q 557 874 728 874 q 273 762 386 874 q 160 439 160 650 m 374 1123 q 402 1147 374 1123 q 472 1190 429 1171 q 566 1208 515 1208 q 649 1192 617 1208 q 701 1157 682 1176 q 743 1111 719 1138 q 783 1072 767 1085 q 788 1064 788 1068 q 762 1048 788 1056 q 710 1040 736 1040 q 628 1097 683 1040 q 549 1164 574 1153 q 497 1122 532 1154 q 426 1073 463 1090 q 350 1056 390 1056 q 308 1064 310 1056 l 311 1069 q 374 1123 319 1075 z "},"Õ":{"ha":1132,"x_min":68,"x_max":1065,"o":"m 1065 486 q 1065 426 1065 486 q 1017 263 1065 367 q 890 97 968 158 q 544 -28 731 -28 q 206 98 343 -28 q 68 442 68 224 q 140 726 68 607 q 321 901 211 846 q 561 956 431 956 q 906 840 756 956 q 1022 695 978 785 q 1065 486 1065 606 m 160 439 q 262 153 160 260 q 533 46 364 46 q 848 166 729 46 q 967 470 967 286 q 847 764 967 654 q 557 874 728 874 q 273 762 386 874 q 160 439 160 650 m 404 1056 q 349 1038 389 1038 q 308 1056 308 1038 q 314 1071 308 1063 q 481 1176 403 1176 q 585 1140 525 1176 q 658 1104 644 1104 q 681 1113 672 1104 q 696 1129 690 1121 q 722 1176 707 1146 q 775 1199 735 1199 q 781 1199 778 1199 q 817 1172 819 1197 l 813 1160 q 644 1035 751 1035 q 551 1069 608 1035 q 475 1104 493 1104 q 404 1056 444 1104 z "},"Ö":{"ha":1132,"x_min":68,"x_max":1065,"o":"m 1065 486 q 1065 426 1065 486 q 1017 263 1065 367 q 890 97 968 158 q 544 -28 731 -28 q 206 98 343 -28 q 68 442 68 224 q 140 726 68 607 q 321 901 211 846 q 561 956 431 956 q 906 840 756 956 q 1022 695 978 785 q 1065 486 1065 606 m 160 439 q 262 153 160 260 q 533 46 364 46 q 848 166 729 46 q 967 470 967 286 q 847 764 967 654 q 557 874 728 874 q 273 762 386 874 q 160 439 160 650 m 422 1163 q 465 1151 440 1163 q 490 1121 490 1139 q 455 1063 490 1081 q 368 1044 419 1044 q 317 1076 317 1044 q 422 1163 317 1163 m 618 1075 q 652 1139 618 1114 q 717 1164 686 1164 q 774 1149 749 1164 q 800 1115 800 1135 q 756 1063 800 1081 q 681 1044 713 1044 q 618 1075 618 1044 z "},"Ø":{"ha":1107,"x_min":69,"x_max":1063,"o":"m 901 868 q 1063 549 1063 732 q 978 299 1063 417 q 767 113 894 181 q 524 46 639 46 q 321 85 408 46 q 301 59 314 76 q 277 28 288 42 q 254 1 267 15 q 210 -28 228 -28 q 176 -16 192 -28 q 160 10 160 -4 q 246 125 160 25 q 69 458 69 243 q 111 669 69 560 q 131 717 114 674 q 194 817 168 808 q 358 953 263 904 q 561 1001 454 1001 q 833 918 701 1001 q 857 948 840 926 q 887 986 874 969 q 917 1021 900 1003 q 971 1058 951 1058 q 1006 1047 990 1058 q 1022 1022 1022 1035 q 1001 982 1022 1010 q 944 916 979 954 q 901 868 910 878 m 569 928 q 508 928 569 928 q 351 858 447 928 q 204 666 256 788 q 153 440 153 544 q 286 176 153 260 q 535 517 369 285 q 793 865 701 750 q 569 928 690 928 m 965 461 q 979 557 979 507 q 861 815 979 707 q 610 474 772 701 q 365 140 447 246 q 493 119 449 119 q 785 217 649 119 q 965 461 922 314 z "},"Ù":{"ha":953,"x_min":96,"x_max":883,"o":"m 138 961 q 215 978 182 990 q 228 947 232 972 q 186 527 186 672 q 239 231 186 382 q 328 98 267 149 q 476 47 389 47 q 691 197 599 47 q 783 556 783 346 q 685 968 783 767 q 737 993 714 993 q 772 989 760 993 q 883 574 883 829 q 775 172 883 364 q 636 24 722 82 q 456 -33 550 -33 q 298 6 363 -33 q 197 106 233 46 q 136 247 160 167 q 96 551 96 386 q 138 961 96 796 m 582 1133 q 600 1114 600 1126 q 585 1083 600 1104 q 547 1063 571 1063 q 535 1065 539 1063 q 281 1218 421 1106 q 271 1235 271 1226 q 278 1258 271 1243 q 325 1283 290 1283 q 343 1279 335 1283 q 582 1133 482 1169 z "},"Ú":{"ha":953,"x_min":96,"x_max":883,"o":"m 138 961 q 215 978 182 990 q 228 947 232 972 q 186 527 186 672 q 239 231 186 382 q 328 98 267 149 q 476 47 389 47 q 691 197 599 47 q 783 556 783 346 q 685 968 783 767 q 737 993 714 993 q 772 989 760 993 q 883 574 883 829 q 775 172 883 364 q 636 24 722 82 q 456 -33 550 -33 q 298 6 363 -33 q 197 106 233 46 q 136 247 160 167 q 96 551 96 386 q 138 961 96 796 m 324 1115 q 465 1210 371 1151 q 578 1283 558 1269 q 616 1296 597 1296 q 659 1288 635 1296 q 683 1269 683 1281 q 667 1250 683 1261 q 557 1178 651 1239 q 415 1082 463 1118 q 386 1074 404 1074 q 342 1082 368 1074 q 315 1101 315 1090 q 324 1115 315 1107 z "},"Û":{"ha":953,"x_min":96,"x_max":883,"o":"m 138 961 q 215 978 182 990 q 228 947 232 972 q 186 527 186 672 q 239 231 186 382 q 328 98 267 149 q 476 47 389 47 q 691 197 599 47 q 783 556 783 346 q 685 968 783 767 q 737 993 714 993 q 772 989 760 993 q 883 574 883 829 q 775 172 883 364 q 636 24 722 82 q 456 -33 550 -33 q 298 6 363 -33 q 197 106 233 46 q 136 247 160 167 q 96 551 96 386 q 138 961 96 796 m 280 1142 q 307 1166 280 1142 q 378 1209 335 1190 q 472 1228 421 1228 q 555 1212 522 1228 q 606 1176 588 1196 q 649 1131 625 1157 q 689 1092 672 1104 q 693 1083 693 1088 q 667 1067 693 1075 q 615 1060 642 1060 q 534 1116 589 1060 q 454 1183 479 1172 q 403 1142 438 1174 q 332 1092 368 1110 q 256 1075 296 1075 q 214 1083 215 1075 l 217 1089 q 280 1142 225 1094 z "},"Ü":{"ha":953,"x_min":96,"x_max":883,"o":"m 138 961 q 215 978 182 990 q 228 947 232 972 q 186 527 186 672 q 239 231 186 382 q 328 98 267 149 q 476 47 389 47 q 691 197 599 47 q 783 556 783 346 q 685 968 783 767 q 737 993 714 993 q 772 989 760 993 q 883 574 883 829 q 775 172 883 364 q 636 24 722 82 q 456 -33 550 -33 q 298 6 363 -33 q 197 106 233 46 q 136 247 160 167 q 96 551 96 386 q 138 961 96 796 m 349 1186 q 392 1174 367 1186 q 417 1144 417 1163 q 381 1086 417 1104 q 294 1068 346 1068 q 243 1100 243 1068 q 349 1186 243 1186 m 544 1099 q 578 1163 544 1138 q 644 1188 613 1188 q 701 1173 675 1188 q 726 1139 726 1158 q 683 1086 726 1104 q 607 1068 639 1068 q 544 1099 544 1068 z "},"ß":{"ha":806,"x_min":78,"x_max":761,"o":"m 261 50 q 386 89 261 104 q 418 86 410 86 q 654 251 654 86 q 424 419 654 406 q 378 450 386 421 q 375 464 375 457 q 400 500 375 485 q 526 615 469 542 q 583 760 583 688 q 536 870 583 832 q 425 908 489 908 q 278 835 335 908 q 210 660 221 763 q 191 275 200 557 q 174 -106 182 -7 q 129 -146 169 -146 l 103 -139 q 78 -97 79 -125 q 104 592 85 50 q 211 913 104 790 q 415 1001 290 1001 q 604 935 540 1001 q 668 779 668 868 q 536 481 668 599 q 697 392 633 451 q 761 246 761 333 q 706 92 761 153 q 499 6 646 24 q 384 -1 442 -1 q 308 1 326 -1 q 276 16 290 4 q 261 50 261 28 z "},"à":{"ha":624,"x_min":56,"x_max":660,"o":"m 521 400 l 514 240 q 542 78 514 119 q 588 50 558 50 q 611 54 596 50 q 660 46 640 63 q 563 -3 650 -3 q 483 47 503 -3 q 461 141 468 85 q 450 218 454 197 q 275 8 360 46 q 175 -11 232 -11 q 87 44 118 -11 q 56 204 56 99 q 90 426 56 310 q 192 622 125 542 q 338 701 258 701 q 489 607 451 701 q 521 400 521 526 m 181 445 q 171 407 181 445 q 151 302 161 369 q 142 183 142 235 q 163 93 142 131 q 219 56 185 56 q 364 197 294 56 q 433 461 433 339 q 392 592 433 540 q 319 625 364 625 q 237 573 274 625 q 181 445 200 521 m 518 828 q 536 808 536 821 q 522 778 536 799 q 483 757 507 757 q 471 760 475 757 q 217 913 357 800 q 207 929 207 921 q 214 953 207 938 q 261 978 226 978 q 279 974 271 978 q 518 828 418 864 z "},"á":{"ha":624,"x_min":56,"x_max":660,"o":"m 521 400 l 514 240 q 542 78 514 119 q 588 50 558 50 q 611 54 596 50 q 660 46 640 63 q 563 -3 650 -3 q 483 47 503 -3 q 461 141 468 85 q 450 218 454 197 q 275 8 360 46 q 175 -11 232 -11 q 87 44 118 -11 q 56 204 56 99 q 90 426 56 310 q 192 622 125 542 q 338 701 258 701 q 489 607 451 701 q 521 400 521 526 m 181 445 q 171 407 181 445 q 151 302 161 369 q 142 183 142 235 q 163 93 142 131 q 219 56 185 56 q 364 197 294 56 q 433 461 433 339 q 392 592 433 540 q 319 625 364 625 q 237 573 274 625 q 181 445 200 521 m 158 790 q 299 885 206 826 q 413 958 393 944 q 451 971 432 971 q 494 963 469 971 q 518 944 518 956 q 502 925 518 936 q 392 853 486 914 q 250 757 297 793 q 221 749 239 749 q 176 757 203 749 q 150 776 150 765 q 158 790 150 782 z "},"â":{"ha":624,"x_min":56,"x_max":660,"o":"m 521 400 l 514 240 q 542 78 514 119 q 588 50 558 50 q 611 54 596 50 q 660 46 640 63 q 563 -3 650 -3 q 483 47 503 -3 q 461 141 468 85 q 450 218 454 197 q 275 8 360 46 q 175 -11 232 -11 q 87 44 118 -11 q 56 204 56 99 q 90 426 56 310 q 192 622 125 542 q 338 701 258 701 q 489 607 451 701 q 521 400 521 526 m 181 445 q 171 407 181 445 q 151 302 161 369 q 142 183 142 235 q 163 93 142 131 q 219 56 185 56 q 364 197 294 56 q 433 461 433 339 q 392 592 433 540 q 319 625 364 625 q 237 573 274 625 q 181 445 200 521 m 163 852 q 191 876 163 852 q 261 919 218 900 q 355 938 304 938 q 438 922 406 938 q 490 886 471 906 q 532 840 508 867 q 572 801 556 814 q 576 793 576 797 q 551 777 576 785 q 499 769 525 769 q 417 826 472 769 q 338 893 363 882 q 286 851 321 883 q 215 802 251 819 q 139 785 179 785 q 97 793 99 785 l 100 799 q 163 852 108 804 z "},"ã":{"ha":624,"x_min":56,"x_max":660,"o":"m 521 400 l 514 240 q 542 78 514 119 q 588 50 558 50 q 611 54 596 50 q 660 46 640 63 q 563 -3 650 -3 q 483 47 503 -3 q 461 141 468 85 q 450 218 454 197 q 275 8 360 46 q 175 -11 232 -11 q 87 44 118 -11 q 56 204 56 99 q 90 426 56 310 q 192 622 125 542 q 338 701 258 701 q 489 607 451 701 q 521 400 521 526 m 181 445 q 171 407 181 445 q 151 302 161 369 q 142 183 142 235 q 163 93 142 131 q 219 56 185 56 q 364 197 294 56 q 433 461 433 339 q 392 592 433 540 q 319 625 364 625 q 237 573 274 625 q 181 445 200 521 m 208 786 q 153 768 193 768 q 113 786 113 768 q 118 801 113 793 q 285 907 207 907 q 389 871 329 907 q 463 835 449 835 q 485 843 476 835 q 500 860 494 851 q 526 907 511 876 q 579 929 539 929 q 585 929 582 929 q 621 903 624 928 l 617 890 q 449 765 556 765 q 355 800 413 765 q 279 835 297 835 q 208 786 249 835 z "},"ä":{"ha":624,"x_min":56,"x_max":660,"o":"m 521 400 l 514 240 q 542 78 514 119 q 588 50 558 50 q 611 54 596 50 q 660 46 640 63 q 563 -3 650 -3 q 483 47 503 -3 q 461 141 468 85 q 450 218 454 197 q 275 8 360 46 q 175 -11 232 -11 q 87 44 118 -11 q 56 204 56 99 q 90 426 56 310 q 192 622 125 542 q 338 701 258 701 q 489 607 451 701 q 521 400 521 526 m 181 445 q 171 407 181 445 q 151 302 161 369 q 142 183 142 235 q 163 93 142 131 q 219 56 185 56 q 364 197 294 56 q 433 461 433 339 q 392 592 433 540 q 319 625 364 625 q 237 573 274 625 q 181 445 200 521 m 215 900 q 258 888 233 900 q 283 858 283 876 q 248 800 283 818 q 161 782 213 782 q 110 814 110 782 q 215 900 110 900 m 411 813 q 445 876 411 851 q 510 901 479 901 q 567 887 542 901 q 593 853 593 872 q 549 800 593 818 q 474 782 506 782 q 411 813 411 782 z "},"å":{"ha":624,"x_min":56,"x_max":660,"o":"m 521 400 l 514 240 q 542 78 514 119 q 588 50 558 50 q 611 54 596 50 q 660 46 640 63 q 563 -3 650 -3 q 483 47 503 -3 q 461 141 468 85 q 450 218 454 197 q 275 8 360 46 q 175 -11 232 -11 q 87 44 118 -11 q 56 204 56 99 q 90 426 56 310 q 192 622 125 542 q 338 701 258 701 q 489 607 451 701 q 521 400 521 526 m 181 445 q 171 407 181 445 q 151 302 161 369 q 142 183 142 235 q 163 93 142 131 q 219 56 185 56 q 364 197 294 56 q 433 461 433 339 q 392 592 433 540 q 319 625 364 625 q 237 573 274 625 q 181 445 200 521 m 392 1010 q 472 984 432 1006 q 513 929 513 963 q 460 812 513 860 q 336 764 408 764 q 247 788 292 764 q 201 846 201 811 q 260 961 201 915 q 392 1010 319 1007 m 304 860 q 318 828 304 843 q 354 813 332 813 q 397 843 376 813 q 417 897 417 874 q 402 940 417 921 q 367 961 388 958 q 304 860 304 918 z "},"æ":{"ha":1093,"x_min":56,"x_max":1061,"o":"m 589 282 q 586 244 586 254 q 637 115 586 161 q 757 69 688 69 q 870 89 826 69 q 933 131 914 108 q 1025 193 983 193 q 1061 185 1040 193 q 956 60 1047 117 q 728 4 865 4 q 594 56 660 4 q 514 192 529 108 q 485 0 499 0 q 454 8 463 0 q 444 51 444 18 q 447 131 444 83 q 450 218 449 178 q 275 8 360 46 q 175 -11 232 -11 q 87 44 118 -11 q 56 204 56 99 q 90 426 56 310 q 192 622 125 542 q 335 701 258 701 q 454 651 413 701 q 506 533 496 600 q 515 413 515 467 q 513 314 515 360 q 626 581 533 475 q 828 686 718 686 q 951 652 900 686 q 1001 553 1001 618 q 894 353 1001 432 q 665 275 786 275 q 589 282 633 275 m 181 445 q 171 407 181 445 q 151 302 161 369 q 142 183 142 235 q 163 93 142 131 q 219 56 185 56 q 364 197 294 56 q 433 461 433 339 q 392 592 433 540 q 319 625 364 625 q 237 573 274 625 q 181 445 200 521 m 694 328 q 811 369 760 328 q 884 457 863 411 q 906 540 906 503 q 876 606 906 578 q 808 635 847 635 q 680 539 739 635 q 596 340 621 443 q 694 328 656 328 z "},"ç":{"ha":618,"x_min":56,"x_max":589,"o":"m 242 -106 q 211 -93 211 -106 q 254 0 211 -43 q 109 80 163 11 q 56 250 56 149 q 125 536 56 393 q 219 651 160 606 q 353 696 279 696 q 472 647 426 696 q 549 521 517 597 q 496 494 522 494 q 453 517 469 494 q 428 567 438 540 q 392 617 418 594 q 328 640 367 640 q 229 563 274 635 q 164 406 185 492 q 143 244 143 319 q 185 113 143 168 q 300 58 228 58 q 433 117 383 58 q 472 167 454 142 q 553 225 517 225 q 589 218 565 225 q 511 97 589 174 q 335 3 433 21 q 318 -28 331 -6 q 299 -62 306 -50 q 383 -83 346 -62 q 419 -149 419 -104 q 356 -254 419 -218 q 199 -290 293 -290 q 63 -222 104 -290 q 83 -197 63 -210 q 129 -185 104 -185 q 173 -212 139 -185 q 247 -239 207 -239 q 312 -219 288 -239 q 336 -169 336 -199 q 314 -122 336 -140 q 268 -104 292 -104 l 242 -106 z "},"è":{"ha":657,"x_min":54,"x_max":625,"o":"m 153 282 q 150 244 150 254 q 201 115 150 161 q 321 69 251 69 q 434 89 390 69 q 497 131 478 108 q 589 193 547 193 q 625 185 604 193 q 520 60 611 117 q 292 4 429 4 q 124 66 194 4 q 54 235 54 128 q 97 442 54 342 q 219 615 139 543 q 381 686 299 686 q 515 652 464 686 q 565 553 565 618 q 458 353 565 432 q 229 275 350 275 q 153 282 197 275 m 258 328 q 375 369 324 328 q 448 457 426 411 q 469 540 469 503 q 440 606 469 578 q 372 635 411 635 q 244 539 303 635 q 160 340 185 443 q 258 328 221 328 m 526 828 q 544 808 544 821 q 530 778 544 799 q 492 757 515 757 q 479 760 483 757 q 225 913 365 800 q 215 929 215 921 q 222 953 215 938 q 269 978 235 978 q 288 974 279 978 q 526 828 426 864 z "},"é":{"ha":657,"x_min":54,"x_max":625,"o":"m 153 282 q 150 244 150 254 q 201 115 150 161 q 321 69 251 69 q 434 89 390 69 q 497 131 478 108 q 589 193 547 193 q 625 185 604 193 q 520 60 611 117 q 292 4 429 4 q 124 66 194 4 q 54 235 54 128 q 97 442 54 342 q 219 615 139 543 q 381 686 299 686 q 515 652 464 686 q 565 553 565 618 q 458 353 565 432 q 229 275 350 275 q 153 282 197 275 m 258 328 q 375 369 324 328 q 448 457 426 411 q 469 540 469 503 q 440 606 469 578 q 372 635 411 635 q 244 539 303 635 q 160 340 185 443 q 258 328 221 328 m 168 794 q 309 890 215 831 q 422 962 403 949 q 460 975 442 975 q 503 967 479 975 q 528 949 528 960 q 512 929 528 940 q 401 858 496 918 q 260 761 307 797 q 231 753 249 753 q 186 761 213 753 q 160 781 160 769 q 168 794 160 786 z "},"ê":{"ha":657,"x_min":54,"x_max":625,"o":"m 153 282 q 150 244 150 254 q 201 115 150 161 q 321 69 251 69 q 434 89 390 69 q 497 131 478 108 q 589 193 547 193 q 625 185 604 193 q 520 60 611 117 q 292 4 429 4 q 124 66 194 4 q 54 235 54 128 q 97 442 54 342 q 219 615 139 543 q 381 686 299 686 q 515 652 464 686 q 565 553 565 618 q 458 353 565 432 q 229 275 350 275 q 153 282 197 275 m 258 328 q 375 369 324 328 q 448 457 426 411 q 469 540 469 503 q 440 606 469 578 q 372 635 411 635 q 244 539 303 635 q 160 340 185 443 q 258 328 221 328 m 188 849 q 216 873 188 849 q 286 916 243 897 q 380 935 329 935 q 463 919 431 935 q 515 883 496 903 q 557 838 533 864 q 597 799 581 811 q 601 790 601 794 q 576 774 601 782 q 524 767 550 767 q 442 823 497 767 q 363 890 388 879 q 311 849 346 881 q 240 799 276 817 q 164 782 204 782 q 122 790 124 782 l 125 796 q 188 849 133 801 z "},"ë":{"ha":657,"x_min":54,"x_max":625,"o":"m 153 282 q 150 244 150 254 q 201 115 150 161 q 321 69 251 69 q 434 89 390 69 q 497 131 478 108 q 589 193 547 193 q 625 185 604 193 q 520 60 611 117 q 292 4 429 4 q 124 66 194 4 q 54 235 54 128 q 97 442 54 342 q 219 615 139 543 q 381 686 299 686 q 515 652 464 686 q 565 553 565 618 q 458 353 565 432 q 229 275 350 275 q 153 282 197 275 m 258 328 q 375 369 324 328 q 448 457 426 411 q 469 540 469 503 q 440 606 469 578 q 372 635 411 635 q 244 539 303 635 q 160 340 185 443 q 258 328 221 328 m 232 886 q 275 874 250 886 q 300 844 300 863 q 265 786 300 804 q 178 768 229 768 q 126 800 126 768 q 232 886 126 886 m 428 799 q 462 863 428 838 q 527 888 496 888 q 584 873 558 888 q 610 839 610 858 q 566 786 610 804 q 490 768 522 768 q 428 799 428 768 z "},"ì":{"ha":278,"x_min":-11,"x_max":318,"o":"m 182 399 l 185 92 q 166 31 185 49 q 131 14 147 14 q 99 22 115 14 q 92 342 92 203 q 97 544 92 481 q 106 624 101 607 q 120 657 110 642 q 147 670 131 672 q 189 656 163 668 q 182 399 182 538 m 300 821 q 318 801 318 814 q 303 771 318 792 q 265 750 289 750 q 253 753 257 750 q -1 906 139 793 q -11 922 -11 914 q -4 946 -11 931 q 43 971 8 971 q 61 967 53 971 q 300 821 200 857 z "},"í":{"ha":278,"x_min":-49,"x_max":319,"o":"m 182 399 l 185 92 q 166 31 185 49 q 131 14 147 14 q 99 22 115 14 q 92 342 92 203 q 97 544 92 481 q 106 624 101 607 q 120 657 110 642 q 147 670 131 672 q 189 656 163 668 q 182 399 182 538 m -40 792 q 101 887 7 828 q 214 959 194 946 q 252 972 233 972 q 295 965 271 972 q 319 946 319 957 q 303 926 319 938 q 193 855 288 915 q 51 758 99 794 q 22 750 40 750 q -22 758 4 750 q -49 778 -49 767 q -40 792 -49 783 z "},"î":{"ha":278,"x_min":-92,"x_max":388,"o":"m 182 399 l 185 92 q 166 31 185 49 q 131 14 147 14 q 99 22 115 14 q 92 342 92 203 q 97 544 92 481 q 106 624 101 607 q 120 657 110 642 q 147 670 131 672 q 189 656 163 668 q 182 399 182 538 m -26 835 q 2 859 -26 835 q 72 902 29 883 q 166 921 115 921 q 249 905 217 921 q 301 869 282 889 q 343 824 319 850 q 383 785 367 797 q 388 776 388 781 q 362 760 388 768 q 310 753 336 753 q 228 809 283 753 q 149 876 174 865 q 97 835 132 867 q 26 785 63 803 q -50 768 -10 768 q -92 776 -90 768 l -89 782 q -26 835 -81 788 z "},"ï":{"ha":278,"x_min":-94,"x_max":389,"o":"m 182 399 l 185 92 q 166 31 185 49 q 131 14 147 14 q 99 22 115 14 q 92 342 92 203 q 97 544 92 481 q 106 624 101 607 q 120 657 110 642 q 147 670 131 672 q 189 656 163 668 q 182 399 182 538 m 11 890 q 54 878 29 890 q 79 849 79 867 q 44 790 79 808 q -43 772 8 772 q -94 804 -94 772 q 11 890 -94 890 m 207 803 q 241 867 207 842 q 306 892 275 892 q 363 877 338 892 q 389 843 389 863 q 345 790 389 808 q 269 772 301 772 q 207 803 207 772 z "},"ñ":{"ha":661,"x_min":81,"x_max":653,"o":"m 653 39 q 596 13 628 13 q 507 76 536 13 q 473 232 478 140 q 467 415 468 324 q 452 571 465 507 q 403 635 439 635 q 320 547 354 635 q 272 353 286 460 q 197 18 233 54 q 154 6 172 6 q 124 10 136 6 q 86 450 94 138 q 81 651 83 606 q 131 671 110 671 q 164 667 151 671 q 172 422 171 607 q 174 210 172 238 q 191 304 181 239 q 210 412 201 369 q 236 511 218 454 q 276 602 254 568 q 338 660 299 636 q 425 685 376 685 q 520 626 490 685 q 553 479 550 567 q 556 301 556 392 q 578 136 557 211 q 653 39 600 61 m 186 796 q 131 778 171 778 q 90 796 90 778 q 96 811 90 803 q 263 917 185 917 q 367 881 307 917 q 440 844 426 844 q 463 853 454 844 q 478 869 472 861 q 504 917 489 886 q 557 939 517 939 q 563 939 560 939 q 599 913 601 938 l 594 900 q 426 775 533 775 q 333 810 390 775 q 257 844 275 844 q 186 796 226 844 z "},"ò":{"ha":681,"x_min":60,"x_max":626,"o":"m 130 576 q 165 631 130 576 q 333 685 200 685 q 547 576 467 685 q 626 330 626 468 q 539 96 626 192 q 317 0 451 0 q 121 76 182 0 q 60 289 60 151 q 130 576 60 468 m 191 503 q 182 476 191 503 q 163 394 172 449 q 154 294 154 340 q 161 209 154 247 q 185 134 168 171 q 235 76 201 97 q 314 54 268 54 q 470 131 407 54 q 533 315 533 207 q 476 526 533 424 q 335 628 418 628 q 247 593 285 628 q 191 503 210 558 m 479 821 q 497 801 497 814 q 483 771 497 792 q 444 750 468 750 q 432 753 436 750 q 178 906 318 793 q 168 922 168 914 q 175 946 168 931 q 222 971 188 971 q 240 967 232 971 q 479 821 379 857 z "},"ó":{"ha":681,"x_min":60,"x_max":626,"o":"m 130 576 q 165 631 130 576 q 333 685 200 685 q 547 576 467 685 q 626 330 626 468 q 539 96 626 192 q 317 0 451 0 q 121 76 182 0 q 60 289 60 151 q 130 576 60 468 m 191 503 q 182 476 191 503 q 163 394 172 449 q 154 294 154 340 q 161 209 154 247 q 185 134 168 171 q 235 76 201 97 q 314 54 268 54 q 470 131 407 54 q 533 315 533 207 q 476 526 533 424 q 335 628 418 628 q 247 593 285 628 q 191 503 210 558 m 147 792 q 288 887 194 828 q 401 959 382 946 q 440 972 421 972 q 483 965 458 972 q 507 946 507 957 q 491 926 507 938 q 381 855 475 915 q 239 758 286 794 q 210 750 228 750 q 165 758 192 750 q 139 778 139 767 q 147 792 139 783 z "},"ô":{"ha":681,"x_min":60,"x_max":626,"o":"m 130 576 q 165 631 130 576 q 333 685 200 685 q 547 576 467 685 q 626 330 626 468 q 539 96 626 192 q 317 0 451 0 q 121 76 182 0 q 60 289 60 151 q 130 576 60 468 m 191 503 q 182 476 191 503 q 163 394 172 449 q 154 294 154 340 q 161 209 154 247 q 185 134 168 171 q 235 76 201 97 q 314 54 268 54 q 470 131 407 54 q 533 315 533 207 q 476 526 533 424 q 335 628 418 628 q 247 593 285 628 q 191 503 210 558 m 145 840 q 173 864 145 840 q 243 906 200 888 q 337 925 286 925 q 420 909 388 925 q 472 874 453 893 q 514 828 490 854 q 554 789 538 801 q 558 781 558 785 q 533 765 558 772 q 481 757 507 757 q 399 813 454 757 q 319 881 344 869 q 268 839 303 871 q 197 790 233 807 q 121 772 161 772 q 79 781 81 772 l 82 786 q 145 840 90 792 z "},"õ":{"ha":681,"x_min":60,"x_max":626,"o":"m 130 576 q 165 631 130 576 q 333 685 200 685 q 547 576 467 685 q 626 330 626 468 q 539 96 626 192 q 317 0 451 0 q 121 76 182 0 q 60 289 60 151 q 130 576 60 468 m 191 503 q 182 476 191 503 q 163 394 172 449 q 154 294 154 340 q 161 209 154 247 q 185 134 168 171 q 235 76 201 97 q 314 54 268 54 q 470 131 407 54 q 533 315 533 207 q 476 526 533 424 q 335 628 418 628 q 247 593 285 628 q 191 503 210 558 m 193 786 q 138 768 178 768 q 97 786 97 768 q 103 801 97 793 q 269 907 192 907 q 374 871 314 907 q 447 835 433 835 q 470 843 461 835 q 485 860 479 851 q 511 907 496 876 q 564 929 524 929 q 569 929 567 929 q 606 903 608 928 l 601 890 q 433 765 540 765 q 340 800 397 765 q 264 835 282 835 q 193 786 233 835 z "},"ö":{"ha":681,"x_min":60,"x_max":626,"o":"m 130 576 q 165 631 130 576 q 333 685 200 685 q 547 576 467 685 q 626 330 626 468 q 539 96 626 192 q 317 0 451 0 q 121 76 182 0 q 60 289 60 151 q 130 576 60 468 m 191 503 q 182 476 191 503 q 163 394 172 449 q 154 294 154 340 q 161 209 154 247 q 185 134 168 171 q 235 76 201 97 q 314 54 268 54 q 470 131 407 54 q 533 315 533 207 q 476 526 533 424 q 335 628 418 628 q 247 593 285 628 q 191 503 210 558 m 200 890 q 243 878 218 890 q 268 849 268 867 q 233 790 268 808 q 146 772 197 772 q 94 804 94 772 q 200 890 94 890 m 396 803 q 430 867 396 842 q 495 892 464 892 q 552 877 526 892 q 578 843 578 863 q 534 790 578 808 q 458 772 490 772 q 396 803 396 772 z "},"÷":{"ha":751,"x_min":74,"x_max":675,"o":"m 147 393 l 640 388 q 675 368 675 388 q 635 321 675 343 q 600 310 615 310 l 344 306 q 74 338 74 306 q 98 374 74 356 q 147 393 122 393 m 288 148 q 288 159 288 148 q 318 194 288 171 q 375 218 349 218 q 421 206 401 218 q 440 167 440 193 q 406 120 440 142 q 346 99 371 99 q 304 112 321 99 q 288 148 288 125 m 368 619 q 426 603 400 619 q 451 558 451 588 q 426 506 451 529 q 372 483 401 483 q 324 506 342 483 q 307 557 307 529 q 368 619 307 613 z "},"ø":{"ha":788,"x_min":49,"x_max":743,"o":"m 713 667 q 640 565 713 638 q 743 347 743 476 q 623 127 743 218 q 338 36 503 36 q 236 51 286 36 q 214 21 229 42 q 188 -15 199 0 q 163 -47 176 -31 q 115 -82 133 -82 q 83 -71 97 -82 q 69 -47 69 -60 q 83 -12 69 -33 q 126 48 96 8 q 158 89 157 88 q 75 182 101 133 q 49 308 49 231 q 149 563 49 469 q 400 657 249 657 q 572 614 492 657 q 590 636 578 621 q 610 663 601 651 q 631 686 619 674 q 670 713 654 713 q 699 699 686 713 q 713 667 713 685 m 401 574 q 206 502 278 574 q 133 303 133 431 q 208 156 133 200 q 517 549 351 347 q 401 574 460 574 m 293 128 q 368 124 319 124 q 485 148 417 124 q 606 228 554 172 q 657 360 657 283 q 588 501 657 438 q 293 128 433 315 z "},"ù":{"ha":636,"x_min":63,"x_max":581,"o":"m 196 651 q 160 449 160 583 q 236 125 160 246 q 342 54 281 54 q 442 119 404 54 q 486 342 486 200 q 436 604 486 519 q 410 663 414 644 q 419 689 407 681 q 461 697 432 697 q 572 522 546 697 q 581 425 581 474 q 531 172 581 299 q 307 -1 460 -1 q 169 58 226 -1 q 63 401 63 172 q 76 554 63 501 q 100 623 90 607 q 124 653 110 639 q 155 664 138 667 q 196 651 172 661 m 435 813 q 453 793 453 806 q 438 763 453 783 q 400 742 424 742 q 388 744 392 742 q 133 897 274 785 q 124 914 124 906 q 131 938 124 922 q 178 963 143 963 q 196 958 188 963 q 435 813 335 849 z "},"ú":{"ha":636,"x_min":63,"x_max":581,"o":"m 196 651 q 160 449 160 583 q 236 125 160 246 q 342 54 281 54 q 442 119 404 54 q 486 342 486 200 q 436 604 486 519 q 410 663 414 644 q 419 689 407 681 q 461 697 432 697 q 572 522 546 697 q 581 425 581 474 q 531 172 581 299 q 307 -1 460 -1 q 169 58 226 -1 q 63 401 63 172 q 76 554 63 501 q 100 623 90 607 q 124 653 110 639 q 155 664 138 667 q 196 651 172 661 m 150 792 q 291 887 197 828 q 404 959 385 946 q 442 972 424 972 q 485 965 461 972 q 510 946 510 957 q 494 926 510 938 q 383 855 478 915 q 242 758 289 794 q 213 750 231 750 q 168 758 194 750 q 142 778 142 767 q 150 792 142 783 z "},"û":{"ha":636,"x_min":63,"x_max":581,"o":"m 196 651 q 160 449 160 583 q 236 125 160 246 q 342 54 281 54 q 442 119 404 54 q 486 342 486 200 q 436 604 486 519 q 410 663 414 644 q 419 689 407 681 q 461 697 432 697 q 572 522 546 697 q 581 425 581 474 q 531 172 581 299 q 307 -1 460 -1 q 169 58 226 -1 q 63 401 63 172 q 76 554 63 501 q 100 623 90 607 q 124 653 110 639 q 155 664 138 667 q 196 651 172 661 m 151 842 q 178 866 151 842 q 249 909 206 890 q 342 928 292 928 q 426 912 393 928 q 477 876 458 896 q 519 831 496 857 q 560 792 543 804 q 564 783 564 788 q 538 767 564 775 q 486 760 513 760 q 405 816 460 760 q 325 883 350 872 q 274 842 308 874 q 203 792 239 810 q 126 775 167 775 q 85 783 86 775 l 88 789 q 151 842 96 794 z "},"ü":{"ha":636,"x_min":63,"x_max":581,"o":"m 196 651 q 160 449 160 583 q 236 125 160 246 q 342 54 281 54 q 442 119 404 54 q 486 342 486 200 q 436 604 486 519 q 410 663 414 644 q 419 689 407 681 q 461 697 432 697 q 572 522 546 697 q 581 425 581 474 q 531 172 581 299 q 307 -1 460 -1 q 169 58 226 -1 q 63 401 63 172 q 76 554 63 501 q 100 623 90 607 q 124 653 110 639 q 155 664 138 667 q 196 651 172 661 m 192 890 q 235 878 210 890 q 260 849 260 867 q 224 790 260 808 q 138 772 189 772 q 86 804 86 772 q 192 890 86 890 m 388 803 q 422 867 388 842 q 487 892 456 892 q 544 877 518 892 q 569 843 569 863 q 526 790 569 808 q 450 772 482 772 q 388 803 388 772 z "},"ÿ":{"ha":614,"x_min":-3,"x_max":550,"o":"m 414 583 q 478 683 414 683 q 503 681 490 683 q 503 590 503 664 q 522 296 503 517 q 542 -35 542 75 q 481 -276 542 -210 q 273 -343 419 -343 q -3 -249 126 -343 q 63 -218 22 -218 q 111 -239 78 -219 q 275 -297 210 -297 q 413 -236 372 -297 q 453 -31 453 -175 q 446 219 453 4 q 436 184 444 215 q 424 143 428 153 q 409 107 419 133 q 388 69 399 81 q 358 43 376 58 q 281 15 328 15 q 207 28 235 15 q 160 67 179 40 q 127 122 142 93 q 104 197 113 151 q 91 279 96 242 q 84 371 86 317 q 81 461 82 425 q 81 553 81 497 l 81 636 q 131 660 94 660 q 181 624 181 660 l 172 489 q 210 185 172 313 q 288 57 247 57 q 342 90 318 57 q 378 184 365 124 q 399 299 390 244 q 410 425 407 353 q 414 583 414 535 m 172 890 q 215 878 190 890 q 240 849 240 867 q 205 790 240 808 q 118 772 169 772 q 67 804 67 772 q 172 890 67 890 m 368 803 q 402 867 368 842 q 467 892 436 892 q 524 877 499 892 q 550 843 550 863 q 506 790 550 808 q 431 772 463 772 q 368 803 368 772 z "},"ı":{"ha":278,"x_min":92,"x_max":189,"o":"m 92 342 q 119 656 92 614 q 143 671 129 671 q 189 656 157 671 q 182 399 182 538 l 185 92 q 166 31 185 49 q 131 14 147 14 q 99 22 115 14 q 92 342 92 203 z "},"Œ":{"ha":1671,"x_min":68,"x_max":1632,"o":"m 1258 997 l 1472 993 q 1619 968 1579 993 q 1590 917 1615 929 q 1518 904 1565 904 l 1218 908 q 1026 901 1104 908 q 1011 678 1011 824 l 1013 615 q 1011 529 1013 575 q 1178 518 1075 518 l 1343 519 q 1456 507 1438 519 q 1465 489 1464 499 q 1331 436 1465 436 l 1015 446 q 1013 332 1014 413 q 1000 78 1010 164 q 1128 72 1089 72 q 1208 74 1167 72 q 1364 82 1250 75 q 1534 89 1478 89 q 1611 81 1590 89 q 1632 47 1632 74 q 1623 24 1632 31 q 1607 15 1614 18 q 1590 9 1600 11 q 1572 6 1579 7 q 1551 3 1564 4 q 1530 2 1538 3 q 1508 1 1522 1 l 1490 1 q 1142 -11 1218 -11 q 913 53 913 -11 l 910 176 q 755 24 851 75 q 544 -28 658 -28 q 206 98 343 -28 q 68 442 68 224 q 109 667 68 567 q 219 828 150 767 q 561 956 364 956 q 774 906 681 956 q 921 760 867 856 q 935 939 924 814 q 1104 992 964 985 q 1258 997 1192 997 m 160 439 q 262 153 160 260 q 544 46 364 46 q 815 160 724 46 q 906 465 906 274 q 813 765 906 657 q 553 874 721 874 q 273 762 386 874 q 160 439 160 650 z "},"œ":{"ha":1117,"x_min":60,"x_max":1085,"o":"m 613 282 q 610 244 610 254 q 660 115 610 161 q 781 69 711 69 q 894 89 850 69 q 956 131 938 108 q 1049 193 1007 193 q 1085 185 1064 193 q 980 60 1071 117 q 746 4 889 4 q 558 140 603 4 q 306 0 481 0 q 121 76 182 0 q 60 289 60 151 q 130 576 60 468 q 333 685 200 685 q 496 623 432 685 q 585 460 560 561 q 694 623 625 560 q 843 686 763 686 q 974 652 924 686 q 1025 553 1025 618 q 917 353 1025 432 q 689 275 810 275 q 613 282 657 275 m 191 503 q 182 476 191 503 q 163 394 172 449 q 154 294 154 340 q 161 209 154 247 q 185 134 168 171 q 235 76 201 97 q 314 54 268 54 q 470 131 407 54 q 533 315 533 207 q 476 526 533 424 q 335 628 418 628 q 247 593 285 628 q 191 503 210 558 m 718 328 q 835 369 783 328 q 908 457 886 411 q 929 540 929 503 q 900 606 929 578 q 832 635 871 635 q 703 539 763 635 q 619 340 644 443 q 718 328 681 328 z "},"Ÿ":{"ha":829,"x_min":26,"x_max":833,"o":"m 467 444 q 600 781 564 697 q 645 868 626 840 q 689 926 664 896 q 740 967 714 956 q 788 978 767 978 q 833 971 810 978 q 703 776 781 940 q 560 436 625 613 q 424 116 496 260 q 308 -28 353 -28 q 269 -19 290 -28 q 344 162 296 38 q 426 354 392 286 q 130 717 233 561 q 26 954 26 872 q 43 978 26 968 q 81 989 60 989 q 117 965 101 989 q 153 892 132 942 q 206 781 175 843 q 306 628 238 719 q 467 444 374 536 m 281 1182 q 324 1170 299 1182 q 349 1140 349 1158 q 313 1082 349 1100 q 226 1064 278 1064 q 175 1096 175 1064 q 281 1182 175 1182 m 476 1094 q 510 1158 476 1133 q 576 1183 544 1183 q 633 1169 607 1183 q 658 1135 658 1154 q 615 1082 658 1100 q 539 1064 571 1064 q 476 1094 476 1064 z "},"ˆ":{"ha":619,"x_min":90,"x_max":569,"o":"m 156 842 q 184 866 156 842 q 254 909 211 890 q 348 928 297 928 q 431 912 399 928 q 483 876 464 896 q 525 831 501 857 q 565 792 549 804 q 569 783 569 788 q 544 767 569 775 q 492 760 518 760 q 410 816 465 760 q 331 883 356 872 q 279 842 314 874 q 208 792 244 810 q 132 775 172 775 q 90 783 92 775 l 93 789 q 156 842 101 794 z "},"ˇ":{"ha":538,"x_min":61,"x_max":489,"o":"m 469 940 l 481 940 q 489 938 489 940 q 488 931 489 935 q 423 860 468 914 q 338 776 378 806 q 253 747 297 747 q 177 776 210 747 q 115 844 144 804 q 61 896 85 883 q 94 914 61 903 q 148 925 126 925 q 193 903 169 925 q 241 848 217 881 q 275 807 265 815 q 310 844 288 819 q 388 924 357 896 q 469 940 404 940 z "},"˚":{"ha":460,"x_min":92,"x_max":403,"o":"m 282 967 q 363 941 322 963 q 403 886 403 919 q 351 769 403 817 q 226 721 299 721 q 137 744 182 721 q 92 803 92 768 q 151 918 92 872 q 282 967 210 964 m 194 817 q 208 785 194 800 q 244 769 222 769 q 287 800 267 769 q 307 854 307 831 q 292 897 307 878 q 257 918 278 915 q 194 817 194 875 z "},"˜":{"ha":660,"x_min":82,"x_max":590,"o":"m 178 782 q 122 764 163 764 q 82 782 82 764 q 88 797 82 789 q 254 903 176 903 q 358 867 299 903 q 432 831 418 831 q 455 839 446 831 q 469 856 464 847 q 496 903 481 872 q 549 925 508 925 q 554 925 551 925 q 590 899 593 924 l 586 886 q 418 761 525 761 q 324 796 382 761 q 249 831 267 831 q 178 782 218 831 z "},"–":{"ha":915,"x_min":89,"x_max":825,"o":"m 782 419 q 825 397 825 419 q 761 350 825 367 q 614 331 697 333 q 483 329 531 329 q 375 330 436 329 q 225 335 314 331 q 128 340 136 340 q 89 356 89 340 q 140 403 89 379 q 190 414 164 414 q 338 409 217 414 q 516 404 460 404 q 638 405 572 404 q 738 413 703 406 q 782 419 774 419 z "},"—":{"ha":1076,"x_min":93,"x_max":978,"o":"m 935 419 q 978 397 978 419 q 899 350 978 367 q 719 331 821 333 q 558 329 617 329 q 425 330 500 329 q 244 335 350 331 q 132 340 139 340 q 93 356 93 340 q 144 403 93 379 q 191 414 168 414 q 374 409 214 414 q 608 404 533 404 q 769 405 683 404 q 891 413 856 406 q 935 419 926 419 z "},"‘":{"ha":260,"x_min":60,"x_max":192,"o":"m 192 782 q 142 679 192 679 q 103 708 103 679 q 83 831 103 751 q 60 928 63 910 q 78 963 60 949 q 123 976 97 976 q 170 909 149 976 q 192 782 192 842 z "},"’":{"ha":263,"x_min":67,"x_max":200,"o":"m 200 938 q 182 823 200 899 q 164 717 164 747 q 122 676 164 676 l 92 683 q 67 717 67 696 q 85 831 67 756 q 103 944 103 907 q 146 976 103 976 l 175 969 q 200 938 200 958 z "},"‚":{"ha":254,"x_min":-49,"x_max":178,"o":"m 89 -31 q 85 6 89 -18 q 78 50 81 31 q 78 89 76 69 q 133 132 81 132 q 178 0 178 132 q 26 -343 178 -228 q -6 -354 10 -354 q -35 -347 -21 -354 q -49 -330 -49 -340 q -32 -306 -49 -319 q 89 -31 89 -212 z "},"“":{"ha":458,"x_min":58,"x_max":392,"o":"m 190 782 q 140 679 190 679 q 101 708 101 679 q 81 831 101 751 q 58 928 61 910 q 77 963 58 949 q 122 976 96 976 q 169 909 147 976 q 190 782 190 842 m 258 928 q 258 943 258 928 q 278 967 258 958 q 313 976 297 976 l 331 974 q 356 944 356 967 q 374 831 356 907 q 392 717 392 756 q 372 686 392 696 q 336 676 351 676 l 319 679 q 294 717 294 686 q 276 823 294 747 q 258 928 258 899 z "},"”":{"ha":458,"x_min":67,"x_max":400,"o":"m 318 679 q 268 782 268 679 q 290 909 268 842 q 337 976 311 976 q 381 963 363 976 q 400 928 400 949 q 377 831 397 910 q 357 708 357 751 q 318 679 357 679 m 200 938 q 182 823 200 899 q 164 717 164 747 q 122 676 164 676 l 92 683 q 67 717 67 696 q 85 831 67 756 q 103 944 103 907 q 146 976 103 976 l 175 969 q 200 938 200 958 z "},"„":{"ha":469,"x_min":-49,"x_max":393,"o":"m 89 -31 q 85 6 89 -18 q 78 50 81 31 q 78 89 76 69 q 133 132 81 132 q 178 0 178 132 q 26 -343 178 -228 q -6 -354 10 -354 q -35 -347 -21 -354 q -49 -330 -49 -340 q -32 -306 -49 -319 q 89 -31 89 -212 m 304 -31 q 300 6 304 -18 q 294 50 296 31 q 293 89 292 69 q 349 132 296 132 q 393 0 393 132 q 242 -343 393 -228 q 210 -354 225 -354 q 181 -347 194 -354 q 167 -330 167 -340 q 183 -306 167 -319 q 304 -31 304 -212 z "},"†":{"ha":586,"x_min":44,"x_max":544,"o":"m 318 776 l 321 568 q 408 563 347 567 q 501 558 468 560 q 544 522 544 553 q 531 495 544 510 q 492 481 517 481 q 488 481 489 481 l 318 493 q 303 -49 318 197 q 281 -66 303 -58 q 239 -74 258 -74 q 217 -67 219 -74 q 232 494 232 228 q 117 487 151 494 q 64 489 83 479 q 44 517 44 499 q 94 558 44 549 q 235 571 158 571 l 229 758 q 256 774 232 767 q 298 782 281 782 q 318 776 315 782 z "},"•":{"ha":531,"x_min":106,"x_max":422,"o":"m 106 492 q 106 518 106 492 q 165 585 106 544 q 277 625 224 625 q 376 579 331 625 q 422 478 422 533 q 376 391 422 422 q 269 360 331 360 q 157 399 208 360 q 106 492 106 439 z "},"…":{"ha":1035,"x_min":69,"x_max":961,"o":"m 153 -42 q 141 -42 153 -42 q 99 -23 128 -42 q 69 22 69 -4 q 100 73 69 49 q 163 97 131 97 q 217 79 194 97 q 239 34 239 61 q 209 -17 239 7 q 153 -42 179 -42 m 517 -49 q 505 -49 517 -49 q 463 -30 492 -49 q 433 15 433 -11 q 464 66 433 42 q 526 90 494 90 q 581 72 558 90 q 603 27 603 54 q 573 -24 603 0 q 517 -49 543 -49 m 876 -37 q 863 -37 876 -37 q 821 -19 850 -37 q 792 26 792 0 q 822 77 792 53 q 885 101 853 101 q 939 83 917 101 q 961 38 961 65 q 931 -13 961 11 q 876 -37 901 -37 z "},"‹":{"ha":585,"x_min":35,"x_max":535,"o":"m 514 188 q 535 171 535 181 q 515 144 535 161 q 469 128 496 128 q 397 148 451 128 q 308 186 342 168 q 256 215 274 204 q 203 252 238 225 q 156 290 168 279 q 101 340 144 300 q 46 389 57 379 q 35 404 35 399 q 117 497 35 432 q 305 622 199 561 q 435 683 411 683 q 472 657 458 683 q 478 642 478 649 q 457 617 478 626 q 281 514 408 594 q 153 408 153 433 q 289 286 153 357 q 514 188 425 215 z "},"›":{"ha":578,"x_min":44,"x_max":544,"o":"m 65 611 q 44 628 44 618 q 64 654 44 638 q 110 671 83 671 q 183 651 128 671 q 272 613 238 631 q 324 584 306 594 q 376 547 342 574 q 423 509 411 519 q 478 459 435 499 q 533 410 522 419 q 544 394 544 400 q 463 302 544 367 q 274 176 381 238 q 144 115 168 115 q 110 142 121 115 q 107 162 107 150 q 129 185 107 174 q 302 285 178 207 q 426 388 426 363 q 290 512 426 439 q 65 611 153 585 z "},"€":{"ha":1065,"x_min":49,"x_max":1021,"o":"m 632 251 l 339 244 q 269 246 303 244 q 397 104 310 156 q 606 53 483 53 q 781 97 710 53 q 881 170 857 143 q 915 210 904 197 q 942 235 925 222 q 976 246 960 247 q 1021 236 992 244 q 842 53 960 117 q 569 -10 724 -10 q 306 56 414 -10 q 161 250 197 122 q 72 275 72 257 q 97 312 72 293 q 146 331 121 331 l 147 331 q 144 387 144 351 q 151 479 144 422 q 115 472 124 474 q 99 471 107 471 l 71 478 q 49 510 49 486 q 165 558 49 544 q 330 861 207 744 q 643 978 453 978 q 817 928 754 978 q 914 783 879 879 q 878 756 893 764 q 848 754 863 747 q 828 765 833 761 q 806 792 822 769 q 786 821 790 815 q 614 908 715 908 q 394 812 490 908 q 258 568 297 715 q 505 576 332 572 q 721 585 678 579 q 769 556 769 585 q 729 508 769 526 q 496 491 694 492 q 242 488 297 490 q 236 406 236 446 q 243 329 236 365 q 672 325 668 325 q 707 307 707 325 q 667 261 707 283 q 632 251 647 251 z "},"™":{"ha":1026,"x_min":81,"x_max":931,"o":"m 429 893 q 458 880 444 893 q 471 857 471 867 q 458 843 471 847 q 424 836 446 839 q 382 833 401 833 q 335 831 363 832 q 297 829 307 829 q 286 672 286 704 q 287 615 286 639 q 287 576 288 592 q 283 539 286 560 q 258 496 279 496 q 222 532 226 496 q 218 633 218 564 q 229 826 218 701 q 81 864 81 826 q 89 883 81 875 q 111 892 97 892 q 429 893 378 892 m 600 529 q 565 507 597 507 q 532 535 532 507 q 558 871 532 711 q 588 894 563 894 q 722 749 647 894 q 808 891 779 863 q 857 919 836 919 q 931 554 931 919 q 899 504 931 511 q 892 504 894 504 q 865 524 872 504 q 861 615 863 532 q 844 831 858 758 q 811 768 833 815 q 767 690 789 721 q 723 660 744 660 q 685 686 701 660 q 650 751 668 713 q 618 807 632 790 q 600 529 606 699 z "},"∞":{"ha":1103,"x_min":78,"x_max":1021,"o":"m 814 568 q 963 526 904 568 q 1021 390 1021 485 q 871 265 1021 265 q 757 284 815 265 q 609 347 699 303 q 510 396 519 392 q 206 292 319 292 q 114 318 150 292 q 78 385 78 344 q 128 484 78 446 q 239 522 178 522 q 497 461 350 522 q 814 568 636 568 m 194 353 q 228 351 217 353 q 263 355 240 349 q 298 364 286 361 q 332 377 310 367 q 366 393 354 388 q 399 410 378 399 q 432 426 421 421 q 262 468 315 468 q 180 447 208 468 q 151 406 151 425 q 194 353 151 361 m 849 322 q 950 396 950 322 q 914 476 950 439 q 824 513 878 513 q 567 431 696 513 q 689 369 618 400 q 790 331 760 338 q 849 322 821 324 z "},"≠":{"ha":747,"x_min":72,"x_max":672,"o":"m 614 347 q 640 328 633 343 q 639 301 647 314 q 611 292 631 289 q 460 304 519 304 q 372 303 401 304 q 347 266 365 293 q 312 216 328 239 q 278 169 296 193 q 217 118 236 118 q 187 137 199 121 q 186 168 175 153 q 286 300 201 185 q 198 292 257 297 q 116 284 139 286 q 83 293 93 282 q 72 317 72 304 q 328 358 72 353 l 419 488 q 118 497 253 490 q 84 526 96 499 q 97 554 72 553 q 174 550 101 554 q 458 546 246 546 q 510 625 463 551 q 633 779 607 779 q 662 766 651 779 q 672 744 672 753 q 663 723 672 736 q 609 647 653 710 q 540 549 565 583 q 572 550 547 549 q 609 550 596 551 q 633 537 622 549 q 642 515 643 525 q 632 500 640 506 q 604 492 624 494 q 572 490 585 490 q 533 490 560 489 q 501 490 506 490 q 411 360 432 388 q 614 347 563 357 z "},"≤":{"ha":621,"x_min":82,"x_max":532,"o":"m 488 338 q 269 369 425 338 q 113 429 113 400 q 165 504 113 458 q 297 602 217 550 q 390 665 376 654 q 415 675 403 675 q 442 663 428 675 q 457 638 457 650 q 446 613 457 625 q 232 453 324 515 q 332 436 247 449 q 525 372 525 410 q 515 348 525 358 q 488 338 504 338 m 118 243 q 365 239 243 239 q 486 239 486 239 q 528 210 515 239 q 532 192 532 200 q 500 168 532 169 q 337 167 418 167 q 194 169 256 167 q 106 181 132 171 q 82 214 81 190 q 118 243 82 243 z "},"≥":{"ha":575,"x_min":92,"x_max":504,"o":"m 147 261 q 100 299 100 261 q 264 403 100 331 q 347 443 332 433 l 125 572 q 100 606 100 585 q 103 618 100 611 q 129 640 108 640 q 172 625 136 640 q 310 547 208 610 q 431 472 411 483 q 453 444 451 460 q 442 415 456 429 q 304 338 397 382 q 172 268 211 294 q 147 261 161 261 m 124 211 l 413 219 q 468 218 449 219 q 496 203 488 217 q 504 182 504 190 q 497 162 504 174 q 467 150 490 150 l 193 139 q 100 156 117 139 q 92 181 92 165 q 124 211 92 211 z "},"ﬁ":{"ha":708,"x_min":3,"x_max":619,"o":"m 186 -10 q 161 414 161 -10 q 160 626 161 590 l 132 626 q 101 627 113 626 q 73 628 90 628 q 45 632 56 629 q 24 639 35 635 q 3 668 3 647 q 89 694 3 694 q 157 692 126 694 q 231 1006 165 925 q 403 1074 288 1074 q 604 913 554 1074 q 563 888 583 888 q 536 890 543 888 q 401 1004 494 1004 q 290 924 329 1004 q 250 700 251 843 l 550 711 q 619 678 618 711 q 613 424 613 579 l 615 79 q 596 21 615 40 q 561 1 576 1 q 529 10 546 1 l 519 388 q 522 494 519 426 q 542 650 524 561 q 436 644 503 646 q 250 635 269 642 q 247 535 247 597 q 254 334 247 472 q 261 124 261 196 q 247 21 261 51 q 186 -10 232 -10 z "},"ﬂ":{"ha":742,"x_min":3,"x_max":765,"o":"m 186 -10 q 161 411 161 -10 q 160 626 161 589 l 132 626 q 101 627 113 626 q 73 628 90 628 q 45 632 56 629 q 24 639 35 635 q 3 668 3 647 q 89 694 3 694 q 157 692 126 694 q 174 931 164 886 q 269 1058 193 1031 q 383 1074 311 1074 q 513 1025 456 1074 q 572 1040 528 1040 q 586 1040 579 1040 q 621 842 621 1006 q 611 629 621 750 q 594 318 594 414 q 693 61 594 61 l 744 71 q 765 60 757 71 q 678 10 761 10 q 551 72 594 10 q 506 242 508 135 q 504 324 504 269 q 523 588 504 392 q 542 829 542 785 q 540 896 542 874 q 471 977 518 950 q 376 1004 424 1004 q 299 980 328 1004 q 261 914 271 956 q 247 794 247 851 q 250 700 247 738 l 368 711 q 438 679 438 711 q 404 651 438 658 q 320 643 371 644 q 250 635 269 642 q 247 533 247 596 q 254 333 247 469 q 261 124 261 196 q 247 21 261 51 q 186 -10 232 -10 z "}}}
